%TF.GenerationSoftware,KiCad,Pcbnew,(6.0.11)*%
%TF.CreationDate,2024-01-24T12:45:58+00:00*%
%TF.ProjectId,Econet_ID_Extender_External,45636f6e-6574-45f4-9944-5f457874656e,rev?*%
%TF.SameCoordinates,Original*%
%TF.FileFunction,Legend,Top*%
%TF.FilePolarity,Positive*%
%FSLAX46Y46*%
G04 Gerber Fmt 4.6, Leading zero omitted, Abs format (unit mm)*
G04 Created by KiCad (PCBNEW (6.0.11)) date 2024-01-24 12:45:58*
%MOMM*%
%LPD*%
G01*
G04 APERTURE LIST*
%ADD10C,0.000000*%
%ADD11C,0.400000*%
%ADD12C,0.300000*%
%ADD13C,0.150000*%
G04 APERTURE END LIST*
D10*
G36*
X137869655Y-90484330D02*
G01*
X137898413Y-90499702D01*
X137898413Y-92956824D01*
X137880580Y-92974621D01*
X137862710Y-92992418D01*
X137502675Y-92992418D01*
X137484842Y-92974621D01*
X137466972Y-92956824D01*
X137466972Y-90500102D01*
X137493017Y-90485015D01*
X137519062Y-90469825D01*
X137679962Y-90469389D01*
X137840898Y-90468955D01*
X137869655Y-90484330D01*
G37*
G36*
X142004132Y-89050000D02*
G01*
X142059340Y-89052826D01*
X142114492Y-89057278D01*
X142169486Y-89063395D01*
X142224218Y-89071216D01*
X142278586Y-89080778D01*
X142332488Y-89092121D01*
X142361397Y-89098279D01*
X142390007Y-89105356D01*
X142418330Y-89113298D01*
X142446380Y-89122048D01*
X142474167Y-89131552D01*
X142501705Y-89141754D01*
X142529005Y-89152599D01*
X142556079Y-89164033D01*
X142609601Y-89188444D01*
X142662368Y-89214546D01*
X142714478Y-89241898D01*
X142766028Y-89270058D01*
X142786702Y-89282627D01*
X142807091Y-89295541D01*
X142827194Y-89308800D01*
X142847009Y-89322408D01*
X142866535Y-89336365D01*
X142885769Y-89350674D01*
X142904711Y-89365337D01*
X142923358Y-89380355D01*
X142941710Y-89395731D01*
X142959764Y-89411467D01*
X142977518Y-89427564D01*
X142994972Y-89444025D01*
X143012123Y-89460851D01*
X143028971Y-89478044D01*
X143045512Y-89495607D01*
X143061746Y-89513541D01*
X143089463Y-89540431D01*
X143116021Y-89568338D01*
X143141463Y-89597196D01*
X143165831Y-89626942D01*
X143189167Y-89657510D01*
X143211515Y-89688835D01*
X143232917Y-89720854D01*
X143253415Y-89753500D01*
X143273053Y-89786711D01*
X143291872Y-89820419D01*
X143309915Y-89854562D01*
X143327225Y-89889074D01*
X143359816Y-89958947D01*
X143389985Y-90029520D01*
X143407866Y-90080836D01*
X143424418Y-90132709D01*
X143439570Y-90185066D01*
X143453255Y-90237832D01*
X143465402Y-90290934D01*
X143475942Y-90344298D01*
X143484805Y-90397851D01*
X143491923Y-90451519D01*
X143491923Y-91621734D01*
X141873592Y-91629401D01*
X141867276Y-91626027D01*
X141861585Y-91622361D01*
X141856490Y-91618417D01*
X141851959Y-91614208D01*
X141847963Y-91609748D01*
X141844473Y-91605051D01*
X141841458Y-91600132D01*
X141838888Y-91595005D01*
X141836734Y-91589682D01*
X141834965Y-91584179D01*
X141833552Y-91578510D01*
X141832465Y-91572688D01*
X141831148Y-91560642D01*
X141830774Y-91548154D01*
X141831105Y-91535336D01*
X141831901Y-91522301D01*
X141833931Y-91496023D01*
X141834687Y-91483006D01*
X141834950Y-91470219D01*
X141834481Y-91457775D01*
X141833042Y-91445785D01*
X141833818Y-91432118D01*
X141834168Y-91418251D01*
X141833926Y-91390074D01*
X141832022Y-91333056D01*
X141831703Y-91304842D01*
X141831994Y-91290947D01*
X141832699Y-91277246D01*
X141833901Y-91263777D01*
X141835683Y-91250581D01*
X141838130Y-91237696D01*
X141841325Y-91225162D01*
X141846604Y-91220438D01*
X141852068Y-91216224D01*
X141857710Y-91212494D01*
X141863518Y-91209220D01*
X141869483Y-91206378D01*
X141875597Y-91203942D01*
X141881849Y-91201884D01*
X141888231Y-91200181D01*
X141901343Y-91197730D01*
X141914857Y-91196382D01*
X141928699Y-91195929D01*
X141942791Y-91196163D01*
X142000156Y-91199817D01*
X142014366Y-91200372D01*
X142028373Y-91200367D01*
X142042101Y-91199597D01*
X142055473Y-91197852D01*
X143060444Y-91191268D01*
X143067476Y-90812913D01*
X143066876Y-90718415D01*
X143063593Y-90624021D01*
X143056760Y-90529763D01*
X143051739Y-90482695D01*
X143045505Y-90435675D01*
X143043808Y-90414094D01*
X143041202Y-90392657D01*
X143037763Y-90371355D01*
X143033566Y-90350183D01*
X143028686Y-90329133D01*
X143023199Y-90308200D01*
X143017180Y-90287376D01*
X143010705Y-90266655D01*
X142996684Y-90225494D01*
X142981740Y-90184664D01*
X142951490Y-90103784D01*
X142936449Y-90074364D01*
X142920664Y-90045357D01*
X142904133Y-90016793D01*
X142886856Y-89988702D01*
X142868830Y-89961113D01*
X142850053Y-89934056D01*
X142830525Y-89907561D01*
X142810243Y-89881658D01*
X142789207Y-89856377D01*
X142767414Y-89831748D01*
X142744863Y-89807800D01*
X142721552Y-89784564D01*
X142697481Y-89762069D01*
X142672646Y-89740345D01*
X142647047Y-89719422D01*
X142620683Y-89699329D01*
X142605252Y-89688036D01*
X142589516Y-89677068D01*
X142573494Y-89666419D01*
X142557209Y-89656085D01*
X142523927Y-89636348D01*
X142489837Y-89617823D01*
X142455103Y-89600476D01*
X142419891Y-89584275D01*
X142384367Y-89569186D01*
X142348695Y-89555176D01*
X142257299Y-89530668D01*
X142210690Y-89519855D01*
X142163545Y-89510172D01*
X142115918Y-89501744D01*
X142067862Y-89494698D01*
X142019432Y-89489161D01*
X141970681Y-89485259D01*
X141921662Y-89483118D01*
X141872430Y-89482866D01*
X141823038Y-89484628D01*
X141773540Y-89488531D01*
X141723989Y-89494701D01*
X141674439Y-89503266D01*
X141624945Y-89514351D01*
X141575559Y-89528082D01*
X141541362Y-89536648D01*
X141507625Y-89546580D01*
X141474353Y-89557815D01*
X141441554Y-89570295D01*
X141409235Y-89583958D01*
X141377404Y-89598743D01*
X141346068Y-89614590D01*
X141315234Y-89631438D01*
X141284909Y-89649226D01*
X141255101Y-89667893D01*
X141225816Y-89687380D01*
X141197063Y-89707625D01*
X141168848Y-89728567D01*
X141141179Y-89750145D01*
X141114062Y-89772300D01*
X141087505Y-89794970D01*
X141054263Y-89829148D01*
X141021743Y-89863869D01*
X140990197Y-89899322D01*
X140974867Y-89917383D01*
X140959874Y-89935698D01*
X140945251Y-89954290D01*
X140931028Y-89973184D01*
X140917236Y-89992403D01*
X140903908Y-90011970D01*
X140891073Y-90031910D01*
X140878765Y-90052246D01*
X140867013Y-90073000D01*
X140855850Y-90094198D01*
X140842530Y-90121351D01*
X140830038Y-90148892D01*
X140818351Y-90176792D01*
X140807451Y-90205025D01*
X140797315Y-90233561D01*
X140787924Y-90262374D01*
X140779257Y-90291435D01*
X140771292Y-90320717D01*
X140764010Y-90350191D01*
X140757389Y-90379830D01*
X140746050Y-90439492D01*
X140737109Y-90499480D01*
X140730401Y-90559570D01*
X140737888Y-92272784D01*
X140739408Y-92621714D01*
X140739517Y-92645986D01*
X144349740Y-92661431D01*
X144349740Y-94253138D01*
X134269741Y-94253138D01*
X134269741Y-92550524D01*
X135783023Y-92532291D01*
X135784904Y-92230207D01*
X135789788Y-91452403D01*
X135796552Y-90372481D01*
X135822271Y-90283855D01*
X135847954Y-90195195D01*
X135870816Y-90150232D01*
X135893642Y-90105266D01*
X135945406Y-90041530D01*
X135955220Y-90029171D01*
X135964866Y-90016809D01*
X135974589Y-90004656D01*
X135979556Y-89998723D01*
X135984634Y-89992922D01*
X135989854Y-89987278D01*
X135995247Y-89981818D01*
X136000843Y-89976567D01*
X136006673Y-89971553D01*
X136012768Y-89966802D01*
X136019158Y-89962340D01*
X136025873Y-89958194D01*
X136029363Y-89956247D01*
X136032946Y-89954389D01*
X136068758Y-89930982D01*
X136124393Y-89911196D01*
X136180063Y-89891372D01*
X137536063Y-89890723D01*
X138892063Y-89890071D01*
X138901107Y-89913546D01*
X138910114Y-89937023D01*
X138910114Y-92956824D01*
X138892280Y-92974657D01*
X138874411Y-92992454D01*
X138695135Y-92992202D01*
X138515859Y-92991984D01*
X138497338Y-92980263D01*
X138478817Y-92968544D01*
X138477732Y-92596825D01*
X138476756Y-92253357D01*
X138475019Y-91648246D01*
X138471221Y-90327951D01*
X136269304Y-90327951D01*
X136263400Y-90335259D01*
X136258287Y-90342158D01*
X136253899Y-90348711D01*
X136250173Y-90354983D01*
X136247045Y-90361040D01*
X136244451Y-90366945D01*
X136242327Y-90372763D01*
X136240610Y-90378559D01*
X136239234Y-90384397D01*
X136238137Y-90390342D01*
X136237254Y-90396459D01*
X136236522Y-90402812D01*
X136233817Y-90431879D01*
X136232949Y-91679502D01*
X136232587Y-92234041D01*
X136232370Y-92572119D01*
X136232117Y-92927126D01*
X136214284Y-92944960D01*
X136196450Y-92962757D01*
X134649273Y-92952374D01*
X134649273Y-93849224D01*
X143970172Y-93849224D01*
X143970172Y-93091896D01*
X140314767Y-93083757D01*
X140309698Y-93073255D01*
X140305152Y-93062658D01*
X140297526Y-93041199D01*
X140291686Y-93019417D01*
X140287426Y-92997349D01*
X140284542Y-92975033D01*
X140282829Y-92952505D01*
X140282083Y-92929803D01*
X140282099Y-92906963D01*
X140283598Y-92861017D01*
X140285691Y-92814965D01*
X140286739Y-92769101D01*
X140286359Y-92746333D01*
X140285105Y-92723723D01*
X140285611Y-92616719D01*
X140287239Y-92268913D01*
X140291345Y-91353582D01*
X140298525Y-90438570D01*
X140313569Y-90357480D01*
X140331554Y-90277002D01*
X140341697Y-90237050D01*
X140352630Y-90197320D01*
X140364375Y-90157835D01*
X140376948Y-90118618D01*
X140390369Y-90079693D01*
X140404657Y-90041083D01*
X140419830Y-90002811D01*
X140435908Y-89964899D01*
X140452908Y-89927372D01*
X140470850Y-89890252D01*
X140489752Y-89853562D01*
X140509634Y-89817326D01*
X140534195Y-89780680D01*
X140559317Y-89744140D01*
X140585049Y-89707859D01*
X140611445Y-89671990D01*
X140638554Y-89636684D01*
X140666430Y-89602095D01*
X140695123Y-89568376D01*
X140724685Y-89535679D01*
X140812483Y-89459108D01*
X140856622Y-89421151D01*
X140901451Y-89384150D01*
X140924248Y-89366179D01*
X140947367Y-89348654D01*
X140970857Y-89331642D01*
X140994767Y-89315214D01*
X141019148Y-89299438D01*
X141044049Y-89284382D01*
X141069519Y-89270116D01*
X141095608Y-89256709D01*
X141117537Y-89243933D01*
X141139755Y-89231597D01*
X141184992Y-89208228D01*
X141231180Y-89186571D01*
X141278182Y-89166591D01*
X141325859Y-89148255D01*
X141374073Y-89131532D01*
X141422686Y-89116388D01*
X141471560Y-89102790D01*
X141521681Y-89091447D01*
X141572773Y-89081351D01*
X141624733Y-89072540D01*
X141677458Y-89065051D01*
X141730846Y-89058922D01*
X141784793Y-89054191D01*
X141839199Y-89050896D01*
X141893959Y-89049073D01*
X141948970Y-89048762D01*
X142004132Y-89050000D01*
G37*
G36*
X137190679Y-90492287D02*
G01*
X137214047Y-90515619D01*
X137214047Y-92956824D01*
X137196213Y-92974621D01*
X137178344Y-92992418D01*
X136829667Y-92992418D01*
X136806118Y-92983446D01*
X136782606Y-92974405D01*
X136782606Y-90500102D01*
X136808614Y-90485015D01*
X136808614Y-90484979D01*
X136834659Y-90469825D01*
X137000985Y-90469389D01*
X137167310Y-90468955D01*
X137190679Y-90492287D01*
G37*
G36*
X144349740Y-92303819D02*
G01*
X143723878Y-92299807D01*
X143006546Y-92292279D01*
X141940081Y-92280591D01*
X141022213Y-92274918D01*
X141018004Y-91371795D01*
X141016283Y-90920283D01*
X141017220Y-90469101D01*
X141040061Y-90377735D01*
X141051953Y-90332235D01*
X141065087Y-90287225D01*
X141072338Y-90264988D01*
X141080160Y-90242978D01*
X141088641Y-90221226D01*
X141097867Y-90199769D01*
X141107927Y-90178640D01*
X141118906Y-90157874D01*
X141130892Y-90137505D01*
X141143972Y-90117567D01*
X141197323Y-90047570D01*
X141224461Y-90012752D01*
X141238401Y-89995696D01*
X141252686Y-89978993D01*
X141267389Y-89962732D01*
X141282583Y-89947000D01*
X141298340Y-89931885D01*
X141314735Y-89917476D01*
X141331840Y-89903860D01*
X141349727Y-89891126D01*
X141368471Y-89879362D01*
X141378187Y-89873871D01*
X141388144Y-89868655D01*
X141414786Y-89850178D01*
X141443297Y-89832688D01*
X141505448Y-89800805D01*
X141573655Y-89773278D01*
X141646974Y-89750381D01*
X141724461Y-89732386D01*
X141805171Y-89719566D01*
X141888162Y-89712195D01*
X141972490Y-89710546D01*
X142057210Y-89714890D01*
X142141380Y-89725503D01*
X142224055Y-89742656D01*
X142264537Y-89753770D01*
X142304291Y-89766622D01*
X142343200Y-89781246D01*
X142381146Y-89797675D01*
X142418010Y-89815945D01*
X142453674Y-89836088D01*
X142488021Y-89858139D01*
X142520933Y-89882133D01*
X142552292Y-89908103D01*
X142581979Y-89936083D01*
X142597171Y-89948040D01*
X142611339Y-89960883D01*
X142624560Y-89974533D01*
X142636910Y-89988912D01*
X142648467Y-90003945D01*
X142659306Y-90019552D01*
X142669504Y-90035657D01*
X142679138Y-90052183D01*
X142688284Y-90069050D01*
X142697019Y-90086183D01*
X142713562Y-90120933D01*
X142745084Y-90190203D01*
X142751316Y-90209386D01*
X142757051Y-90228634D01*
X142762289Y-90247945D01*
X142767030Y-90267319D01*
X142771274Y-90286758D01*
X142775022Y-90306260D01*
X142778273Y-90325825D01*
X142781028Y-90345454D01*
X142783286Y-90365147D01*
X142785048Y-90384903D01*
X142786313Y-90404722D01*
X142787083Y-90424604D01*
X142787356Y-90444550D01*
X142787133Y-90464559D01*
X142786415Y-90484632D01*
X142785200Y-90504767D01*
X142784493Y-90553952D01*
X142784651Y-90603353D01*
X142785877Y-90702385D01*
X142786102Y-90751804D01*
X142785508Y-90801018D01*
X142783671Y-90849920D01*
X142780173Y-90898406D01*
X142778588Y-90905314D01*
X142776616Y-90911579D01*
X142774276Y-90917230D01*
X142771585Y-90922297D01*
X142768560Y-90926809D01*
X142765220Y-90930795D01*
X142761582Y-90934285D01*
X142757663Y-90937309D01*
X142753482Y-90939895D01*
X142749056Y-90942073D01*
X142744403Y-90943873D01*
X142739540Y-90945324D01*
X142734485Y-90946456D01*
X142729256Y-90947297D01*
X142718345Y-90948227D01*
X142706950Y-90948350D01*
X142695212Y-90947900D01*
X142671271Y-90946227D01*
X142659352Y-90945474D01*
X142647655Y-90945091D01*
X142636321Y-90945313D01*
X142625494Y-90946375D01*
X141883613Y-90946375D01*
X141877786Y-90942184D01*
X141872555Y-90937747D01*
X141867890Y-90933077D01*
X141863761Y-90928184D01*
X141860141Y-90923081D01*
X141856998Y-90917780D01*
X141854305Y-90912294D01*
X141852033Y-90906634D01*
X141850152Y-90900812D01*
X141848633Y-90894840D01*
X141847447Y-90888730D01*
X141846565Y-90882495D01*
X141845596Y-90869696D01*
X141845493Y-90856539D01*
X141846024Y-90843120D01*
X141846955Y-90829536D01*
X141849087Y-90802256D01*
X141849822Y-90788754D01*
X141850026Y-90775471D01*
X141849466Y-90762505D01*
X141847909Y-90749951D01*
X141848875Y-90735291D01*
X141849249Y-90720521D01*
X141849162Y-90705666D01*
X141848747Y-90690750D01*
X141846426Y-90630966D01*
X141846339Y-90616111D01*
X141846713Y-90601341D01*
X141847679Y-90586681D01*
X141849369Y-90572154D01*
X141851914Y-90557785D01*
X141855445Y-90543599D01*
X141860095Y-90529620D01*
X141862881Y-90522715D01*
X141865995Y-90515871D01*
X142338893Y-90515871D01*
X142337776Y-90499976D01*
X142337471Y-90483833D01*
X142337763Y-90467507D01*
X142338435Y-90451065D01*
X142340053Y-90418098D01*
X142340566Y-90401706D01*
X142340593Y-90385463D01*
X142339919Y-90369435D01*
X142338326Y-90353689D01*
X142335598Y-90338291D01*
X142333741Y-90330744D01*
X142331519Y-90323308D01*
X142328905Y-90315992D01*
X142325873Y-90308805D01*
X142322394Y-90301755D01*
X142318442Y-90294849D01*
X142313991Y-90288097D01*
X142309012Y-90281507D01*
X142303479Y-90275086D01*
X142297364Y-90268844D01*
X142290150Y-90257585D01*
X142281613Y-90246725D01*
X142271826Y-90236274D01*
X142260862Y-90226242D01*
X142248791Y-90216640D01*
X142235686Y-90207477D01*
X142206660Y-90190509D01*
X142174360Y-90175419D01*
X142139361Y-90162287D01*
X142102238Y-90151194D01*
X142063566Y-90142219D01*
X142023921Y-90135444D01*
X141983877Y-90130948D01*
X141944010Y-90128812D01*
X141904895Y-90129116D01*
X141867108Y-90131941D01*
X141831222Y-90137367D01*
X141797814Y-90145475D01*
X141782219Y-90150559D01*
X141767460Y-90156344D01*
X141757857Y-90158663D01*
X141748421Y-90161303D01*
X141739147Y-90164254D01*
X141730032Y-90167503D01*
X141721069Y-90171037D01*
X141712255Y-90174847D01*
X141695055Y-90183243D01*
X141678394Y-90192596D01*
X141662236Y-90202813D01*
X141646544Y-90213799D01*
X141631281Y-90225462D01*
X141616410Y-90237706D01*
X141601895Y-90250438D01*
X141587698Y-90263564D01*
X141573784Y-90276991D01*
X141546655Y-90304369D01*
X141520213Y-90331822D01*
X141506685Y-90361131D01*
X141492758Y-90390354D01*
X141479364Y-90419696D01*
X141473158Y-90434474D01*
X141467435Y-90449357D01*
X141462311Y-90464372D01*
X141457902Y-90479543D01*
X141454326Y-90494895D01*
X141451698Y-90510455D01*
X141450135Y-90526246D01*
X141449754Y-90542296D01*
X141450043Y-90550425D01*
X141450671Y-90558628D01*
X141451652Y-90566908D01*
X141453002Y-90575269D01*
X141444575Y-91852013D01*
X143970172Y-91859430D01*
X143970172Y-88290152D01*
X134649273Y-88290152D01*
X134649273Y-91768958D01*
X135049352Y-91767837D01*
X135057817Y-91018214D01*
X135066317Y-90268590D01*
X135090807Y-90142417D01*
X135115296Y-90016243D01*
X135146840Y-89919769D01*
X135178311Y-89823258D01*
X135223202Y-89731667D01*
X135235110Y-89707472D01*
X135247156Y-89683705D01*
X135259616Y-89660428D01*
X135266087Y-89648992D01*
X135272766Y-89637702D01*
X135279686Y-89626565D01*
X135286883Y-89615589D01*
X135294390Y-89604782D01*
X135302243Y-89594152D01*
X135310476Y-89583705D01*
X135319123Y-89573451D01*
X135328220Y-89563396D01*
X135337800Y-89553548D01*
X135355764Y-89532142D01*
X135374967Y-89510806D01*
X135395336Y-89489627D01*
X135416800Y-89468691D01*
X135439284Y-89448084D01*
X135462717Y-89427893D01*
X135487026Y-89408204D01*
X135512138Y-89389102D01*
X135537981Y-89370674D01*
X135564482Y-89353006D01*
X135591569Y-89336184D01*
X135619169Y-89320294D01*
X135647210Y-89305422D01*
X135675618Y-89291655D01*
X135704322Y-89279078D01*
X135733248Y-89267779D01*
X135845784Y-89221041D01*
X136075920Y-89156509D01*
X137814491Y-89151733D01*
X139553097Y-89146959D01*
X139573789Y-89164070D01*
X139594481Y-89181214D01*
X139594481Y-92956824D01*
X139576647Y-92974657D01*
X139558814Y-92992454D01*
X139198743Y-92992454D01*
X139180908Y-92974657D01*
X139163039Y-92956824D01*
X139163039Y-89593195D01*
X136147616Y-89593195D01*
X136032548Y-89622567D01*
X135917480Y-89651940D01*
X135842854Y-89692455D01*
X135768228Y-89732968D01*
X135710206Y-89790845D01*
X135652184Y-89848761D01*
X135607401Y-89939954D01*
X135562618Y-90031075D01*
X135530496Y-90164701D01*
X135498410Y-90298288D01*
X135489584Y-91247374D01*
X135481119Y-92221237D01*
X134875431Y-92220728D01*
X134269741Y-92217184D01*
X134269741Y-87886240D01*
X144349740Y-87886240D01*
X144349740Y-92303819D01*
G37*
D11*
X146906036Y-89141546D02*
X147639370Y-89141546D01*
X147953655Y-90293927D02*
X146906036Y-90293927D01*
X146906036Y-88093927D01*
X147953655Y-88093927D01*
X149839370Y-90189165D02*
X149629846Y-90293927D01*
X149210798Y-90293927D01*
X149001274Y-90189165D01*
X148896512Y-90084403D01*
X148791751Y-89874879D01*
X148791751Y-89246308D01*
X148896512Y-89036784D01*
X149001274Y-88932022D01*
X149210798Y-88827260D01*
X149629846Y-88827260D01*
X149839370Y-88932022D01*
X151096512Y-90293927D02*
X150886989Y-90189165D01*
X150782227Y-90084403D01*
X150677465Y-89874879D01*
X150677465Y-89246308D01*
X150782227Y-89036784D01*
X150886989Y-88932022D01*
X151096512Y-88827260D01*
X151410798Y-88827260D01*
X151620322Y-88932022D01*
X151725084Y-89036784D01*
X151829846Y-89246308D01*
X151829846Y-89874879D01*
X151725084Y-90084403D01*
X151620322Y-90189165D01*
X151410798Y-90293927D01*
X151096512Y-90293927D01*
X152772703Y-88827260D02*
X152772703Y-90293927D01*
X152772703Y-89036784D02*
X152877465Y-88932022D01*
X153086989Y-88827260D01*
X153401274Y-88827260D01*
X153610798Y-88932022D01*
X153715560Y-89141546D01*
X153715560Y-90293927D01*
X155601274Y-90189165D02*
X155391751Y-90293927D01*
X154972703Y-90293927D01*
X154763179Y-90189165D01*
X154658417Y-89979641D01*
X154658417Y-89141546D01*
X154763179Y-88932022D01*
X154972703Y-88827260D01*
X155391751Y-88827260D01*
X155601274Y-88932022D01*
X155706036Y-89141546D01*
X155706036Y-89351069D01*
X154658417Y-89560593D01*
X156334608Y-88827260D02*
X157172703Y-88827260D01*
X156648893Y-88093927D02*
X156648893Y-89979641D01*
X156753655Y-90189165D01*
X156963179Y-90293927D01*
X157172703Y-90293927D01*
X159582227Y-90293927D02*
X159582227Y-88093927D01*
X160629846Y-90293927D02*
X160629846Y-88093927D01*
X161153655Y-88093927D01*
X161467941Y-88198689D01*
X161677465Y-88408212D01*
X161782227Y-88617736D01*
X161886989Y-89036784D01*
X161886989Y-89351069D01*
X161782227Y-89770117D01*
X161677465Y-89979641D01*
X161467941Y-90189165D01*
X161153655Y-90293927D01*
X160629846Y-90293927D01*
X147796512Y-92683546D02*
X148529846Y-92683546D01*
X148844132Y-93835927D02*
X147796512Y-93835927D01*
X147796512Y-91635927D01*
X148844132Y-91635927D01*
X149577465Y-93835927D02*
X150729846Y-92369260D01*
X149577465Y-92369260D02*
X150729846Y-93835927D01*
X151253655Y-92369260D02*
X152091751Y-92369260D01*
X151567941Y-91635927D02*
X151567941Y-93521641D01*
X151672703Y-93731165D01*
X151882227Y-93835927D01*
X152091751Y-93835927D01*
X153663179Y-93731165D02*
X153453655Y-93835927D01*
X153034608Y-93835927D01*
X152825084Y-93731165D01*
X152720322Y-93521641D01*
X152720322Y-92683546D01*
X152825084Y-92474022D01*
X153034608Y-92369260D01*
X153453655Y-92369260D01*
X153663179Y-92474022D01*
X153767941Y-92683546D01*
X153767941Y-92893069D01*
X152720322Y-93102593D01*
X154710798Y-92369260D02*
X154710798Y-93835927D01*
X154710798Y-92578784D02*
X154815560Y-92474022D01*
X155025084Y-92369260D01*
X155339370Y-92369260D01*
X155548893Y-92474022D01*
X155653655Y-92683546D01*
X155653655Y-93835927D01*
X157644132Y-93835927D02*
X157644132Y-91635927D01*
X157644132Y-93731165D02*
X157434608Y-93835927D01*
X157015560Y-93835927D01*
X156806036Y-93731165D01*
X156701274Y-93626403D01*
X156596512Y-93416879D01*
X156596512Y-92788308D01*
X156701274Y-92578784D01*
X156806036Y-92474022D01*
X157015560Y-92369260D01*
X157434608Y-92369260D01*
X157644132Y-92474022D01*
X159529846Y-93731165D02*
X159320322Y-93835927D01*
X158901274Y-93835927D01*
X158691751Y-93731165D01*
X158586989Y-93521641D01*
X158586989Y-92683546D01*
X158691751Y-92474022D01*
X158901274Y-92369260D01*
X159320322Y-92369260D01*
X159529846Y-92474022D01*
X159634608Y-92683546D01*
X159634608Y-92893069D01*
X158586989Y-93102593D01*
X160577465Y-93835927D02*
X160577465Y-92369260D01*
X160577465Y-92788308D02*
X160682227Y-92578784D01*
X160786989Y-92474022D01*
X160996512Y-92369260D01*
X161206036Y-92369260D01*
D12*
X136701428Y-100448571D02*
X136701428Y-101520000D01*
X136630000Y-101734285D01*
X136487142Y-101877142D01*
X136272857Y-101948571D01*
X136130000Y-101948571D01*
X138130000Y-101948571D02*
X137415714Y-101948571D01*
X137415714Y-100448571D01*
X139487142Y-101805714D02*
X139415714Y-101877142D01*
X139201428Y-101948571D01*
X139058571Y-101948571D01*
X138844285Y-101877142D01*
X138701428Y-101734285D01*
X138630000Y-101591428D01*
X138558571Y-101305714D01*
X138558571Y-101091428D01*
X138630000Y-100805714D01*
X138701428Y-100662857D01*
X138844285Y-100520000D01*
X139058571Y-100448571D01*
X139201428Y-100448571D01*
X139415714Y-100520000D01*
X139487142Y-100591428D01*
X140558571Y-100448571D02*
X140558571Y-101520000D01*
X140487142Y-101734285D01*
X140344285Y-101877142D01*
X140130000Y-101948571D01*
X139987142Y-101948571D01*
X141987142Y-101948571D02*
X141272857Y-101948571D01*
X141272857Y-100448571D01*
X143344285Y-101805714D02*
X143272857Y-101877142D01*
X143058571Y-101948571D01*
X142915714Y-101948571D01*
X142701428Y-101877142D01*
X142558571Y-101734285D01*
X142487142Y-101591428D01*
X142415714Y-101305714D01*
X142415714Y-101091428D01*
X142487142Y-100805714D01*
X142558571Y-100662857D01*
X142701428Y-100520000D01*
X142915714Y-100448571D01*
X143058571Y-100448571D01*
X143272857Y-100520000D01*
X143344285Y-100591428D01*
X144415714Y-100448571D02*
X144415714Y-101520000D01*
X144344285Y-101734285D01*
X144201428Y-101877142D01*
X143987142Y-101948571D01*
X143844285Y-101948571D01*
X145844285Y-101948571D02*
X145130000Y-101948571D01*
X145130000Y-100448571D01*
X147201428Y-101805714D02*
X147130000Y-101877142D01*
X146915714Y-101948571D01*
X146772857Y-101948571D01*
X146558571Y-101877142D01*
X146415714Y-101734285D01*
X146344285Y-101591428D01*
X146272857Y-101305714D01*
X146272857Y-101091428D01*
X146344285Y-100805714D01*
X146415714Y-100662857D01*
X146558571Y-100520000D01*
X146772857Y-100448571D01*
X146915714Y-100448571D01*
X147130000Y-100520000D01*
X147201428Y-100591428D01*
X148272857Y-100448571D02*
X148272857Y-101520000D01*
X148201428Y-101734285D01*
X148058571Y-101877142D01*
X147844285Y-101948571D01*
X147701428Y-101948571D01*
X149701428Y-101948571D02*
X148987142Y-101948571D01*
X148987142Y-100448571D01*
X151058571Y-101805714D02*
X150987142Y-101877142D01*
X150772857Y-101948571D01*
X150630000Y-101948571D01*
X150415714Y-101877142D01*
X150272857Y-101734285D01*
X150201428Y-101591428D01*
X150130000Y-101305714D01*
X150130000Y-101091428D01*
X150201428Y-100805714D01*
X150272857Y-100662857D01*
X150415714Y-100520000D01*
X150630000Y-100448571D01*
X150772857Y-100448571D01*
X150987142Y-100520000D01*
X151058571Y-100591428D01*
D13*
%TO.C,*%
%TD*%
M02*
