%TF.GenerationSoftware,KiCad,Pcbnew,(6.0.11)*%
%TF.CreationDate,2024-01-05T00:58:23+00:00*%
%TF.ProjectId,Econet_ID_Extender_External,45636f6e-6574-45f4-9944-5f457874656e,rev?*%
%TF.SameCoordinates,Original*%
%TF.FileFunction,Drillmap*%
%TF.FilePolarity,Positive*%
%FSLAX45Y45*%
G04 Gerber Fmt 4.5, Leading zero omitted, Abs format (unit mm)*
G04 Created by KiCad (PCBNEW (6.0.11)) date 2024-01-05 00:58:23*
%MOMM*%
%LPD*%
G01*
G04 APERTURE LIST*
%ADD10C,0.100000*%
%ADD11C,0.200000*%
%ADD12C,0.080000*%
%ADD13C,0.176200*%
G04 APERTURE END LIST*
D10*
X16771578Y-10724578D02*
G75*
G03*
X16971578Y-10524578I2J199998D01*
G01*
X12681000Y-8603578D02*
X12681000Y-10524578D01*
X12881000Y-8403580D02*
G75*
G03*
X12681000Y-8603578I0J-200000D01*
G01*
X16971578Y-10524578D02*
X16971578Y-8603578D01*
X16971572Y-8603578D02*
G75*
G03*
X16771578Y-8403578I-199992J8D01*
G01*
X12681002Y-10524578D02*
G75*
G03*
X12881000Y-10724578I199998J-2D01*
G01*
X12881000Y-10724578D02*
X16771578Y-10724578D01*
X12881000Y-8403578D02*
X16771578Y-8403578D01*
D11*
D12*
X13404750Y-9704578D02*
X13484750Y-9784578D01*
X13484750Y-9704578D02*
X13404750Y-9784578D01*
X13404750Y-10466578D02*
X13484750Y-10546578D01*
X13484750Y-10466578D02*
X13404750Y-10546578D01*
X13658750Y-9704578D02*
X13738750Y-9784578D01*
X13738750Y-9704578D02*
X13658750Y-9784578D01*
X13658750Y-10466578D02*
X13738750Y-10546578D01*
X13738750Y-10466578D02*
X13658750Y-10546578D01*
X13912750Y-9704578D02*
X13992750Y-9784578D01*
X13992750Y-9704578D02*
X13912750Y-9784578D01*
X13912750Y-10466578D02*
X13992750Y-10546578D01*
X13992750Y-10466578D02*
X13912750Y-10546578D01*
X14166750Y-9704578D02*
X14246750Y-9784578D01*
X14246750Y-9704578D02*
X14166750Y-9784578D01*
X14166750Y-10466578D02*
X14246750Y-10546578D01*
X14246750Y-10466578D02*
X14166750Y-10546578D01*
X14420750Y-9704578D02*
X14500750Y-9784578D01*
X14500750Y-9704578D02*
X14420750Y-9784578D01*
X14420750Y-10466578D02*
X14500750Y-10546578D01*
X14500750Y-10466578D02*
X14420750Y-10546578D01*
X14674750Y-9704578D02*
X14754750Y-9784578D01*
X14754750Y-9704578D02*
X14674750Y-9784578D01*
X14674750Y-10466578D02*
X14754750Y-10546578D01*
X14754750Y-10466578D02*
X14674750Y-10546578D01*
X14928750Y-9704578D02*
X15008750Y-9784578D01*
X15008750Y-9704578D02*
X14928750Y-9784578D01*
X14928750Y-10466578D02*
X15008750Y-10546578D01*
X15008750Y-10466578D02*
X14928750Y-10546578D01*
X15182750Y-9704578D02*
X15262750Y-9784578D01*
X15262750Y-9704578D02*
X15182750Y-9784578D01*
X15182750Y-10466578D02*
X15262750Y-10546578D01*
X15262750Y-10466578D02*
X15182750Y-10546578D01*
X15641250Y-10088078D02*
X15721250Y-10168078D01*
X15721250Y-10088078D02*
X15641250Y-10168078D01*
X15895250Y-10342078D02*
X15975250Y-10422078D01*
X15975250Y-10342078D02*
X15895250Y-10422078D01*
X16149250Y-10088078D02*
X16229250Y-10168078D01*
X16229250Y-10088078D02*
X16149250Y-10168078D01*
D13*
X13063889Y-9153000D02*
G75*
G03*
X13063889Y-9153000I-88100J0D01*
G01*
D11*
X12887689Y-8906100D02*
X12887689Y-9399900D01*
X13063889Y-8906100D02*
X13063889Y-9399900D01*
X12887689Y-9399900D02*
G75*
G03*
X13063889Y-9399900I88100J0D01*
G01*
X13063889Y-8906100D02*
G75*
G03*
X12887689Y-8906100I-88100J0D01*
G01*
D13*
X13063889Y-10153000D02*
G75*
G03*
X13063889Y-10153000I-88100J0D01*
G01*
D11*
X12887689Y-9906100D02*
X12887689Y-10399900D01*
X13063889Y-9906100D02*
X13063889Y-10399900D01*
X12887689Y-10399900D02*
G75*
G03*
X13063889Y-10399900I88100J0D01*
G01*
X13063889Y-9906100D02*
G75*
G03*
X12887689Y-9906100I-88100J0D01*
G01*
D13*
X16764889Y-9153000D02*
G75*
G03*
X16764889Y-9153000I-88100J0D01*
G01*
D11*
X16588689Y-8906100D02*
X16588689Y-9399900D01*
X16764889Y-8906100D02*
X16764889Y-9399900D01*
X16588689Y-9399900D02*
G75*
G03*
X16764889Y-9399900I88100J0D01*
G01*
X16764889Y-8906100D02*
G75*
G03*
X16588689Y-8906100I-88100J0D01*
G01*
D13*
X16764889Y-10153000D02*
G75*
G03*
X16764889Y-10153000I-88100J0D01*
G01*
D11*
X16588689Y-9906100D02*
X16588689Y-10399900D01*
X16764889Y-9906100D02*
X16764889Y-10399900D01*
X16588689Y-10399900D02*
G75*
G03*
X16764889Y-10399900I88100J0D01*
G01*
X16764889Y-9906100D02*
G75*
G03*
X16588689Y-9906100I-88100J0D01*
G01*
X12933619Y-11040054D02*
X12933619Y-10840054D01*
X12981238Y-10840054D01*
X13009809Y-10849578D01*
X13028857Y-10868626D01*
X13038380Y-10887673D01*
X13047904Y-10925769D01*
X13047904Y-10954340D01*
X13038380Y-10992435D01*
X13028857Y-11011483D01*
X13009809Y-11030531D01*
X12981238Y-11040054D01*
X12933619Y-11040054D01*
X13133619Y-11040054D02*
X13133619Y-10906721D01*
X13133619Y-10944816D02*
X13143142Y-10925769D01*
X13152666Y-10916245D01*
X13171714Y-10906721D01*
X13190761Y-10906721D01*
X13257428Y-11040054D02*
X13257428Y-10906721D01*
X13257428Y-10840054D02*
X13247904Y-10849578D01*
X13257428Y-10859102D01*
X13266952Y-10849578D01*
X13257428Y-10840054D01*
X13257428Y-10859102D01*
X13381238Y-11040054D02*
X13362190Y-11030531D01*
X13352666Y-11011483D01*
X13352666Y-10840054D01*
X13486000Y-11040054D02*
X13466952Y-11030531D01*
X13457428Y-11011483D01*
X13457428Y-10840054D01*
X13714571Y-11040054D02*
X13714571Y-10840054D01*
X13781238Y-10982912D01*
X13847904Y-10840054D01*
X13847904Y-11040054D01*
X14028857Y-11040054D02*
X14028857Y-10935292D01*
X14019333Y-10916245D01*
X14000285Y-10906721D01*
X13962190Y-10906721D01*
X13943142Y-10916245D01*
X14028857Y-11030531D02*
X14009809Y-11040054D01*
X13962190Y-11040054D01*
X13943142Y-11030531D01*
X13933619Y-11011483D01*
X13933619Y-10992435D01*
X13943142Y-10973388D01*
X13962190Y-10963864D01*
X14009809Y-10963864D01*
X14028857Y-10954340D01*
X14124095Y-10906721D02*
X14124095Y-11106721D01*
X14124095Y-10916245D02*
X14143142Y-10906721D01*
X14181238Y-10906721D01*
X14200285Y-10916245D01*
X14209809Y-10925769D01*
X14219333Y-10944816D01*
X14219333Y-11001959D01*
X14209809Y-11021007D01*
X14200285Y-11030531D01*
X14181238Y-11040054D01*
X14143142Y-11040054D01*
X14124095Y-11030531D01*
X14305047Y-11021007D02*
X14314571Y-11030531D01*
X14305047Y-11040054D01*
X14295523Y-11030531D01*
X14305047Y-11021007D01*
X14305047Y-11040054D01*
X14305047Y-10916245D02*
X14314571Y-10925769D01*
X14305047Y-10935292D01*
X14295523Y-10925769D01*
X14305047Y-10916245D01*
X14305047Y-10935292D01*
D12*
X12596000Y-11329578D02*
X12676000Y-11409578D01*
X12676000Y-11329578D02*
X12596000Y-11409578D01*
D11*
X12971714Y-11260054D02*
X12990761Y-11260054D01*
X13009809Y-11269578D01*
X13019333Y-11279102D01*
X13028857Y-11298150D01*
X13038380Y-11336245D01*
X13038380Y-11383864D01*
X13028857Y-11421959D01*
X13019333Y-11441007D01*
X13009809Y-11450530D01*
X12990761Y-11460054D01*
X12971714Y-11460054D01*
X12952666Y-11450530D01*
X12943142Y-11441007D01*
X12933619Y-11421959D01*
X12924095Y-11383864D01*
X12924095Y-11336245D01*
X12933619Y-11298150D01*
X12943142Y-11279102D01*
X12952666Y-11269578D01*
X12971714Y-11260054D01*
X13124095Y-11441007D02*
X13133619Y-11450530D01*
X13124095Y-11460054D01*
X13114571Y-11450530D01*
X13124095Y-11441007D01*
X13124095Y-11460054D01*
X13247904Y-11345769D02*
X13228857Y-11336245D01*
X13219333Y-11326721D01*
X13209809Y-11307673D01*
X13209809Y-11298150D01*
X13219333Y-11279102D01*
X13228857Y-11269578D01*
X13247904Y-11260054D01*
X13286000Y-11260054D01*
X13305047Y-11269578D01*
X13314571Y-11279102D01*
X13324095Y-11298150D01*
X13324095Y-11307673D01*
X13314571Y-11326721D01*
X13305047Y-11336245D01*
X13286000Y-11345769D01*
X13247904Y-11345769D01*
X13228857Y-11355292D01*
X13219333Y-11364816D01*
X13209809Y-11383864D01*
X13209809Y-11421959D01*
X13219333Y-11441007D01*
X13228857Y-11450530D01*
X13247904Y-11460054D01*
X13286000Y-11460054D01*
X13305047Y-11450530D01*
X13314571Y-11441007D01*
X13324095Y-11421959D01*
X13324095Y-11383864D01*
X13314571Y-11364816D01*
X13305047Y-11355292D01*
X13286000Y-11345769D01*
X13447904Y-11260054D02*
X13466952Y-11260054D01*
X13486000Y-11269578D01*
X13495523Y-11279102D01*
X13505047Y-11298150D01*
X13514571Y-11336245D01*
X13514571Y-11383864D01*
X13505047Y-11421959D01*
X13495523Y-11441007D01*
X13486000Y-11450530D01*
X13466952Y-11460054D01*
X13447904Y-11460054D01*
X13428857Y-11450530D01*
X13419333Y-11441007D01*
X13409809Y-11421959D01*
X13400285Y-11383864D01*
X13400285Y-11336245D01*
X13409809Y-11298150D01*
X13419333Y-11279102D01*
X13428857Y-11269578D01*
X13447904Y-11260054D01*
X13638380Y-11260054D02*
X13657428Y-11260054D01*
X13676476Y-11269578D01*
X13686000Y-11279102D01*
X13695523Y-11298150D01*
X13705047Y-11336245D01*
X13705047Y-11383864D01*
X13695523Y-11421959D01*
X13686000Y-11441007D01*
X13676476Y-11450530D01*
X13657428Y-11460054D01*
X13638380Y-11460054D01*
X13619333Y-11450530D01*
X13609809Y-11441007D01*
X13600285Y-11421959D01*
X13590761Y-11383864D01*
X13590761Y-11336245D01*
X13600285Y-11298150D01*
X13609809Y-11279102D01*
X13619333Y-11269578D01*
X13638380Y-11260054D01*
X13790761Y-11460054D02*
X13790761Y-11326721D01*
X13790761Y-11345769D02*
X13800285Y-11336245D01*
X13819333Y-11326721D01*
X13847904Y-11326721D01*
X13866952Y-11336245D01*
X13876476Y-11355292D01*
X13876476Y-11460054D01*
X13876476Y-11355292D02*
X13886000Y-11336245D01*
X13905047Y-11326721D01*
X13933619Y-11326721D01*
X13952666Y-11336245D01*
X13962190Y-11355292D01*
X13962190Y-11460054D01*
X14057428Y-11460054D02*
X14057428Y-11326721D01*
X14057428Y-11345769D02*
X14066952Y-11336245D01*
X14086000Y-11326721D01*
X14114571Y-11326721D01*
X14133619Y-11336245D01*
X14143142Y-11355292D01*
X14143142Y-11460054D01*
X14143142Y-11355292D02*
X14152666Y-11336245D01*
X14171714Y-11326721D01*
X14200285Y-11326721D01*
X14219333Y-11336245D01*
X14228857Y-11355292D01*
X14228857Y-11460054D01*
X14619333Y-11250530D02*
X14447904Y-11507673D01*
X14876476Y-11260054D02*
X14895523Y-11260054D01*
X14914571Y-11269578D01*
X14924095Y-11279102D01*
X14933619Y-11298150D01*
X14943142Y-11336245D01*
X14943142Y-11383864D01*
X14933619Y-11421959D01*
X14924095Y-11441007D01*
X14914571Y-11450530D01*
X14895523Y-11460054D01*
X14876476Y-11460054D01*
X14857428Y-11450530D01*
X14847904Y-11441007D01*
X14838380Y-11421959D01*
X14828857Y-11383864D01*
X14828857Y-11336245D01*
X14838380Y-11298150D01*
X14847904Y-11279102D01*
X14857428Y-11269578D01*
X14876476Y-11260054D01*
X15028857Y-11441007D02*
X15038380Y-11450530D01*
X15028857Y-11460054D01*
X15019333Y-11450530D01*
X15028857Y-11441007D01*
X15028857Y-11460054D01*
X15162190Y-11260054D02*
X15181238Y-11260054D01*
X15200285Y-11269578D01*
X15209809Y-11279102D01*
X15219333Y-11298150D01*
X15228857Y-11336245D01*
X15228857Y-11383864D01*
X15219333Y-11421959D01*
X15209809Y-11441007D01*
X15200285Y-11450530D01*
X15181238Y-11460054D01*
X15162190Y-11460054D01*
X15143142Y-11450530D01*
X15133619Y-11441007D01*
X15124095Y-11421959D01*
X15114571Y-11383864D01*
X15114571Y-11336245D01*
X15124095Y-11298150D01*
X15133619Y-11279102D01*
X15143142Y-11269578D01*
X15162190Y-11260054D01*
X15295523Y-11260054D02*
X15419333Y-11260054D01*
X15352666Y-11336245D01*
X15381238Y-11336245D01*
X15400285Y-11345769D01*
X15409809Y-11355292D01*
X15419333Y-11374340D01*
X15419333Y-11421959D01*
X15409809Y-11441007D01*
X15400285Y-11450530D01*
X15381238Y-11460054D01*
X15324095Y-11460054D01*
X15305047Y-11450530D01*
X15295523Y-11441007D01*
X15609809Y-11460054D02*
X15495523Y-11460054D01*
X15552666Y-11460054D02*
X15552666Y-11260054D01*
X15533619Y-11288626D01*
X15514571Y-11307673D01*
X15495523Y-11317197D01*
X15790761Y-11260054D02*
X15695523Y-11260054D01*
X15686000Y-11355292D01*
X15695523Y-11345769D01*
X15714571Y-11336245D01*
X15762190Y-11336245D01*
X15781238Y-11345769D01*
X15790761Y-11355292D01*
X15800285Y-11374340D01*
X15800285Y-11421959D01*
X15790761Y-11441007D01*
X15781238Y-11450530D01*
X15762190Y-11460054D01*
X15714571Y-11460054D01*
X15695523Y-11450530D01*
X15686000Y-11441007D01*
X15876476Y-11260054D02*
X15876476Y-11298150D01*
X15952666Y-11260054D02*
X15952666Y-11298150D01*
X16247904Y-11536245D02*
X16238380Y-11526721D01*
X16219333Y-11498150D01*
X16209809Y-11479102D01*
X16200285Y-11450530D01*
X16190761Y-11402911D01*
X16190761Y-11364816D01*
X16200285Y-11317197D01*
X16209809Y-11288626D01*
X16219333Y-11269578D01*
X16238380Y-11241007D01*
X16247904Y-11231483D01*
X16428857Y-11460054D02*
X16314571Y-11460054D01*
X16371714Y-11460054D02*
X16371714Y-11260054D01*
X16352666Y-11288626D01*
X16333619Y-11307673D01*
X16314571Y-11317197D01*
X16524095Y-11460054D02*
X16562190Y-11460054D01*
X16581238Y-11450530D01*
X16590761Y-11441007D01*
X16609809Y-11412435D01*
X16619333Y-11374340D01*
X16619333Y-11298150D01*
X16609809Y-11279102D01*
X16600285Y-11269578D01*
X16581238Y-11260054D01*
X16543142Y-11260054D01*
X16524095Y-11269578D01*
X16514571Y-11279102D01*
X16505047Y-11298150D01*
X16505047Y-11345769D01*
X16514571Y-11364816D01*
X16524095Y-11374340D01*
X16543142Y-11383864D01*
X16581238Y-11383864D01*
X16600285Y-11374340D01*
X16609809Y-11364816D01*
X16619333Y-11345769D01*
X16857428Y-11460054D02*
X16857428Y-11260054D01*
X16943142Y-11460054D02*
X16943142Y-11355292D01*
X16933619Y-11336245D01*
X16914571Y-11326721D01*
X16886000Y-11326721D01*
X16866952Y-11336245D01*
X16857428Y-11345769D01*
X17066952Y-11460054D02*
X17047904Y-11450530D01*
X17038381Y-11441007D01*
X17028857Y-11421959D01*
X17028857Y-11364816D01*
X17038381Y-11345769D01*
X17047904Y-11336245D01*
X17066952Y-11326721D01*
X17095523Y-11326721D01*
X17114571Y-11336245D01*
X17124095Y-11345769D01*
X17133619Y-11364816D01*
X17133619Y-11421959D01*
X17124095Y-11441007D01*
X17114571Y-11450530D01*
X17095523Y-11460054D01*
X17066952Y-11460054D01*
X17247904Y-11460054D02*
X17228857Y-11450530D01*
X17219333Y-11431483D01*
X17219333Y-11260054D01*
X17400285Y-11450530D02*
X17381238Y-11460054D01*
X17343142Y-11460054D01*
X17324095Y-11450530D01*
X17314571Y-11431483D01*
X17314571Y-11355292D01*
X17324095Y-11336245D01*
X17343142Y-11326721D01*
X17381238Y-11326721D01*
X17400285Y-11336245D01*
X17409809Y-11355292D01*
X17409809Y-11374340D01*
X17314571Y-11393388D01*
X17486000Y-11450530D02*
X17505047Y-11460054D01*
X17543142Y-11460054D01*
X17562190Y-11450530D01*
X17571714Y-11431483D01*
X17571714Y-11421959D01*
X17562190Y-11402911D01*
X17543142Y-11393388D01*
X17514571Y-11393388D01*
X17495523Y-11383864D01*
X17486000Y-11364816D01*
X17486000Y-11355292D01*
X17495523Y-11336245D01*
X17514571Y-11326721D01*
X17543142Y-11326721D01*
X17562190Y-11336245D01*
X17638381Y-11536245D02*
X17647904Y-11526721D01*
X17666952Y-11498150D01*
X17676476Y-11479102D01*
X17686000Y-11450530D01*
X17695523Y-11402911D01*
X17695523Y-11364816D01*
X17686000Y-11317197D01*
X17676476Y-11288626D01*
X17666952Y-11269578D01*
X17647904Y-11241007D01*
X17638381Y-11231483D01*
D13*
X12676000Y-11633578D02*
G75*
G03*
X12676000Y-11633578I-88100J0D01*
G01*
D11*
X13038380Y-11724054D02*
X12924095Y-11724054D01*
X12981238Y-11724054D02*
X12981238Y-11524054D01*
X12962190Y-11552626D01*
X12943142Y-11571673D01*
X12924095Y-11581197D01*
X13124095Y-11705007D02*
X13133619Y-11714530D01*
X13124095Y-11724054D01*
X13114571Y-11714530D01*
X13124095Y-11705007D01*
X13124095Y-11724054D01*
X13200285Y-11524054D02*
X13333619Y-11524054D01*
X13247904Y-11724054D01*
X13495523Y-11524054D02*
X13457428Y-11524054D01*
X13438380Y-11533578D01*
X13428857Y-11543102D01*
X13409809Y-11571673D01*
X13400285Y-11609769D01*
X13400285Y-11685959D01*
X13409809Y-11705007D01*
X13419333Y-11714530D01*
X13438380Y-11724054D01*
X13476476Y-11724054D01*
X13495523Y-11714530D01*
X13505047Y-11705007D01*
X13514571Y-11685959D01*
X13514571Y-11638340D01*
X13505047Y-11619292D01*
X13495523Y-11609769D01*
X13476476Y-11600245D01*
X13438380Y-11600245D01*
X13419333Y-11609769D01*
X13409809Y-11619292D01*
X13400285Y-11638340D01*
X13590761Y-11543102D02*
X13600285Y-11533578D01*
X13619333Y-11524054D01*
X13666952Y-11524054D01*
X13686000Y-11533578D01*
X13695523Y-11543102D01*
X13705047Y-11562150D01*
X13705047Y-11581197D01*
X13695523Y-11609769D01*
X13581238Y-11724054D01*
X13705047Y-11724054D01*
X13790761Y-11724054D02*
X13790761Y-11590721D01*
X13790761Y-11609769D02*
X13800285Y-11600245D01*
X13819333Y-11590721D01*
X13847904Y-11590721D01*
X13866952Y-11600245D01*
X13876476Y-11619292D01*
X13876476Y-11724054D01*
X13876476Y-11619292D02*
X13886000Y-11600245D01*
X13905047Y-11590721D01*
X13933619Y-11590721D01*
X13952666Y-11600245D01*
X13962190Y-11619292D01*
X13962190Y-11724054D01*
X14057428Y-11724054D02*
X14057428Y-11590721D01*
X14057428Y-11609769D02*
X14066952Y-11600245D01*
X14086000Y-11590721D01*
X14114571Y-11590721D01*
X14133619Y-11600245D01*
X14143142Y-11619292D01*
X14143142Y-11724054D01*
X14143142Y-11619292D02*
X14152666Y-11600245D01*
X14171714Y-11590721D01*
X14200285Y-11590721D01*
X14219333Y-11600245D01*
X14228857Y-11619292D01*
X14228857Y-11724054D01*
X14619333Y-11514530D02*
X14447904Y-11771673D01*
X14876476Y-11524054D02*
X14895523Y-11524054D01*
X14914571Y-11533578D01*
X14924095Y-11543102D01*
X14933619Y-11562150D01*
X14943142Y-11600245D01*
X14943142Y-11647864D01*
X14933619Y-11685959D01*
X14924095Y-11705007D01*
X14914571Y-11714530D01*
X14895523Y-11724054D01*
X14876476Y-11724054D01*
X14857428Y-11714530D01*
X14847904Y-11705007D01*
X14838380Y-11685959D01*
X14828857Y-11647864D01*
X14828857Y-11600245D01*
X14838380Y-11562150D01*
X14847904Y-11543102D01*
X14857428Y-11533578D01*
X14876476Y-11524054D01*
X15028857Y-11705007D02*
X15038380Y-11714530D01*
X15028857Y-11724054D01*
X15019333Y-11714530D01*
X15028857Y-11705007D01*
X15028857Y-11724054D01*
X15162190Y-11524054D02*
X15181238Y-11524054D01*
X15200285Y-11533578D01*
X15209809Y-11543102D01*
X15219333Y-11562150D01*
X15228857Y-11600245D01*
X15228857Y-11647864D01*
X15219333Y-11685959D01*
X15209809Y-11705007D01*
X15200285Y-11714530D01*
X15181238Y-11724054D01*
X15162190Y-11724054D01*
X15143142Y-11714530D01*
X15133619Y-11705007D01*
X15124095Y-11685959D01*
X15114571Y-11647864D01*
X15114571Y-11600245D01*
X15124095Y-11562150D01*
X15133619Y-11543102D01*
X15143142Y-11533578D01*
X15162190Y-11524054D01*
X15400285Y-11524054D02*
X15362190Y-11524054D01*
X15343142Y-11533578D01*
X15333619Y-11543102D01*
X15314571Y-11571673D01*
X15305047Y-11609769D01*
X15305047Y-11685959D01*
X15314571Y-11705007D01*
X15324095Y-11714530D01*
X15343142Y-11724054D01*
X15381238Y-11724054D01*
X15400285Y-11714530D01*
X15409809Y-11705007D01*
X15419333Y-11685959D01*
X15419333Y-11638340D01*
X15409809Y-11619292D01*
X15400285Y-11609769D01*
X15381238Y-11600245D01*
X15343142Y-11600245D01*
X15324095Y-11609769D01*
X15314571Y-11619292D01*
X15305047Y-11638340D01*
X15514571Y-11724054D02*
X15552666Y-11724054D01*
X15571714Y-11714530D01*
X15581238Y-11705007D01*
X15600285Y-11676435D01*
X15609809Y-11638340D01*
X15609809Y-11562150D01*
X15600285Y-11543102D01*
X15590761Y-11533578D01*
X15571714Y-11524054D01*
X15533619Y-11524054D01*
X15514571Y-11533578D01*
X15505047Y-11543102D01*
X15495523Y-11562150D01*
X15495523Y-11609769D01*
X15505047Y-11628816D01*
X15514571Y-11638340D01*
X15533619Y-11647864D01*
X15571714Y-11647864D01*
X15590761Y-11638340D01*
X15600285Y-11628816D01*
X15609809Y-11609769D01*
X15781238Y-11590721D02*
X15781238Y-11724054D01*
X15733619Y-11514530D02*
X15686000Y-11657388D01*
X15809809Y-11657388D01*
X15876476Y-11524054D02*
X15876476Y-11562150D01*
X15952666Y-11524054D02*
X15952666Y-11562150D01*
X16247904Y-11800245D02*
X16238380Y-11790721D01*
X16219333Y-11762150D01*
X16209809Y-11743102D01*
X16200285Y-11714530D01*
X16190761Y-11666911D01*
X16190761Y-11628816D01*
X16200285Y-11581197D01*
X16209809Y-11552626D01*
X16219333Y-11533578D01*
X16238380Y-11505007D01*
X16247904Y-11495483D01*
X16362190Y-11524054D02*
X16381238Y-11524054D01*
X16400285Y-11533578D01*
X16409809Y-11543102D01*
X16419333Y-11562150D01*
X16428857Y-11600245D01*
X16428857Y-11647864D01*
X16419333Y-11685959D01*
X16409809Y-11705007D01*
X16400285Y-11714530D01*
X16381238Y-11724054D01*
X16362190Y-11724054D01*
X16343142Y-11714530D01*
X16333619Y-11705007D01*
X16324095Y-11685959D01*
X16314571Y-11647864D01*
X16314571Y-11600245D01*
X16324095Y-11562150D01*
X16333619Y-11543102D01*
X16343142Y-11533578D01*
X16362190Y-11524054D01*
X16666952Y-11724054D02*
X16666952Y-11524054D01*
X16752666Y-11724054D02*
X16752666Y-11619292D01*
X16743142Y-11600245D01*
X16724095Y-11590721D01*
X16695523Y-11590721D01*
X16676476Y-11600245D01*
X16666952Y-11609769D01*
X16876476Y-11724054D02*
X16857428Y-11714530D01*
X16847904Y-11705007D01*
X16838381Y-11685959D01*
X16838381Y-11628816D01*
X16847904Y-11609769D01*
X16857428Y-11600245D01*
X16876476Y-11590721D01*
X16905047Y-11590721D01*
X16924095Y-11600245D01*
X16933619Y-11609769D01*
X16943142Y-11628816D01*
X16943142Y-11685959D01*
X16933619Y-11705007D01*
X16924095Y-11714530D01*
X16905047Y-11724054D01*
X16876476Y-11724054D01*
X17057428Y-11724054D02*
X17038381Y-11714530D01*
X17028857Y-11695483D01*
X17028857Y-11524054D01*
X17209809Y-11714530D02*
X17190762Y-11724054D01*
X17152666Y-11724054D01*
X17133619Y-11714530D01*
X17124095Y-11695483D01*
X17124095Y-11619292D01*
X17133619Y-11600245D01*
X17152666Y-11590721D01*
X17190762Y-11590721D01*
X17209809Y-11600245D01*
X17219333Y-11619292D01*
X17219333Y-11638340D01*
X17124095Y-11657388D01*
X17295523Y-11714530D02*
X17314571Y-11724054D01*
X17352666Y-11724054D01*
X17371714Y-11714530D01*
X17381238Y-11695483D01*
X17381238Y-11685959D01*
X17371714Y-11666911D01*
X17352666Y-11657388D01*
X17324095Y-11657388D01*
X17305047Y-11647864D01*
X17295523Y-11628816D01*
X17295523Y-11619292D01*
X17305047Y-11600245D01*
X17324095Y-11590721D01*
X17352666Y-11590721D01*
X17371714Y-11600245D01*
X17619333Y-11647864D02*
X17771714Y-11647864D01*
X17695523Y-11724054D02*
X17695523Y-11571673D01*
X18105047Y-11590721D02*
X18105047Y-11724054D01*
X18057428Y-11514530D02*
X18009809Y-11657388D01*
X18133619Y-11657388D01*
X18352666Y-11714530D02*
X18371714Y-11724054D01*
X18409809Y-11724054D01*
X18428857Y-11714530D01*
X18438381Y-11695483D01*
X18438381Y-11685959D01*
X18428857Y-11666911D01*
X18409809Y-11657388D01*
X18381238Y-11657388D01*
X18362190Y-11647864D01*
X18352666Y-11628816D01*
X18352666Y-11619292D01*
X18362190Y-11600245D01*
X18381238Y-11590721D01*
X18409809Y-11590721D01*
X18428857Y-11600245D01*
X18552666Y-11724054D02*
X18533619Y-11714530D01*
X18524095Y-11695483D01*
X18524095Y-11524054D01*
X18657428Y-11724054D02*
X18638381Y-11714530D01*
X18628857Y-11705007D01*
X18619333Y-11685959D01*
X18619333Y-11628816D01*
X18628857Y-11609769D01*
X18638381Y-11600245D01*
X18657428Y-11590721D01*
X18686000Y-11590721D01*
X18705047Y-11600245D01*
X18714571Y-11609769D01*
X18724095Y-11628816D01*
X18724095Y-11685959D01*
X18714571Y-11705007D01*
X18705047Y-11714530D01*
X18686000Y-11724054D01*
X18657428Y-11724054D01*
X18781238Y-11590721D02*
X18857428Y-11590721D01*
X18809809Y-11524054D02*
X18809809Y-11695483D01*
X18819333Y-11714530D01*
X18838381Y-11724054D01*
X18857428Y-11724054D01*
X18914571Y-11714530D02*
X18933619Y-11724054D01*
X18971714Y-11724054D01*
X18990762Y-11714530D01*
X19000285Y-11695483D01*
X19000285Y-11685959D01*
X18990762Y-11666911D01*
X18971714Y-11657388D01*
X18943142Y-11657388D01*
X18924095Y-11647864D01*
X18914571Y-11628816D01*
X18914571Y-11619292D01*
X18924095Y-11600245D01*
X18943142Y-11590721D01*
X18971714Y-11590721D01*
X18990762Y-11600245D01*
X19066952Y-11800245D02*
X19076476Y-11790721D01*
X19095523Y-11762150D01*
X19105047Y-11743102D01*
X19114571Y-11714530D01*
X19124095Y-11666911D01*
X19124095Y-11628816D01*
X19114571Y-11581197D01*
X19105047Y-11552626D01*
X19095523Y-11533578D01*
X19076476Y-11505007D01*
X19066952Y-11495483D01*
M02*
