M48
; DRILL file {KiCad (6.0.11)} date Wed Jan 24 12:45:55 2024
; FORMAT={-:-/ absolute / metric / decimal}
; #@! TF.CreationDate,2024-01-24T12:45:55+00:00
; #@! TF.GenerationSoftware,Kicad,Pcbnew,(6.0.11)
; #@! TF.FileFunction,Plated,1,2,PTH
FMAT,2
METRIC
; #@! TA.AperFunction,Plated,PTH,ComponentDrill
T1C0.800
; #@! TA.AperFunction,Plated,PTH,ComponentDrill
T2C1.762
%
G90
G05
T1
X134.447Y-97.446
X134.447Y-105.066
X136.987Y-97.446
X136.987Y-105.066
X139.527Y-97.446
X139.527Y-105.066
X142.067Y-97.446
X142.067Y-105.066
X144.607Y-97.446
X144.607Y-105.066
X147.147Y-97.446
X147.147Y-105.066
X149.687Y-97.446
X149.687Y-105.066
X152.227Y-97.446
X152.227Y-105.066
X156.8Y-101.251
X159.34Y-98.711
X161.88Y-101.251
T2
X129.758Y-89.061G85X129.758Y-93.999
G05
X129.758Y-99.061G85X129.758Y-103.999
G05
X166.768Y-89.061G85X166.768Y-93.999
G05
X166.768Y-99.061G85X166.768Y-103.999
G05
T0
M30
