%TF.GenerationSoftware,KiCad,Pcbnew,(6.0.11)*%
%TF.CreationDate,2024-01-05T00:57:41+00:00*%
%TF.ProjectId,Econet_ID_Extender_Internal,45636f6e-6574-45f4-9944-5f457874656e,rev?*%
%TF.SameCoordinates,Original*%
%TF.FileFunction,Legend,Bot*%
%TF.FilePolarity,Positive*%
%FSLAX46Y46*%
G04 Gerber Fmt 4.6, Leading zero omitted, Abs format (unit mm)*
G04 Created by KiCad (PCBNEW (6.0.11)) date 2024-01-05 00:57:41*
%MOMM*%
%LPD*%
G01*
G04 APERTURE LIST*
%ADD10C,0.341271*%
%ADD11C,0.300000*%
G04 APERTURE END LIST*
D10*
X140550635Y-96110000D02*
G75*
G03*
X140550635Y-96110000I-170635J0D01*
G01*
D11*
X156461460Y-97338571D02*
X156461460Y-98410000D01*
X156532889Y-98624285D01*
X156675746Y-98767142D01*
X156890031Y-98838571D01*
X157032889Y-98838571D01*
X155032889Y-98838571D02*
X155747174Y-98838571D01*
X155747174Y-97338571D01*
X153675746Y-98695714D02*
X153747174Y-98767142D01*
X153961460Y-98838571D01*
X154104317Y-98838571D01*
X154318603Y-98767142D01*
X154461460Y-98624285D01*
X154532889Y-98481428D01*
X154604317Y-98195714D01*
X154604317Y-97981428D01*
X154532889Y-97695714D01*
X154461460Y-97552857D01*
X154318603Y-97410000D01*
X154104317Y-97338571D01*
X153961460Y-97338571D01*
X153747174Y-97410000D01*
X153675746Y-97481428D01*
X152604317Y-97338571D02*
X152604317Y-98410000D01*
X152675746Y-98624285D01*
X152818603Y-98767142D01*
X153032889Y-98838571D01*
X153175746Y-98838571D01*
X151175746Y-98838571D02*
X151890031Y-98838571D01*
X151890031Y-97338571D01*
X149818603Y-98695714D02*
X149890031Y-98767142D01*
X150104317Y-98838571D01*
X150247174Y-98838571D01*
X150461460Y-98767142D01*
X150604317Y-98624285D01*
X150675746Y-98481428D01*
X150747174Y-98195714D01*
X150747174Y-97981428D01*
X150675746Y-97695714D01*
X150604317Y-97552857D01*
X150461460Y-97410000D01*
X150247174Y-97338571D01*
X150104317Y-97338571D01*
X149890031Y-97410000D01*
X149818603Y-97481428D01*
X148747174Y-97338571D02*
X148747174Y-98410000D01*
X148818603Y-98624285D01*
X148961460Y-98767142D01*
X149175746Y-98838571D01*
X149318603Y-98838571D01*
X147318603Y-98838571D02*
X148032889Y-98838571D01*
X148032889Y-97338571D01*
X145961460Y-98695714D02*
X146032889Y-98767142D01*
X146247174Y-98838571D01*
X146390031Y-98838571D01*
X146604317Y-98767142D01*
X146747174Y-98624285D01*
X146818603Y-98481428D01*
X146890031Y-98195714D01*
X146890031Y-97981428D01*
X146818603Y-97695714D01*
X146747174Y-97552857D01*
X146604317Y-97410000D01*
X146390031Y-97338571D01*
X146247174Y-97338571D01*
X146032889Y-97410000D01*
X145961460Y-97481428D01*
X144890031Y-97338571D02*
X144890031Y-98410000D01*
X144961460Y-98624285D01*
X145104317Y-98767142D01*
X145318603Y-98838571D01*
X145461460Y-98838571D01*
X143461460Y-98838571D02*
X144175746Y-98838571D01*
X144175746Y-97338571D01*
X142104317Y-98695714D02*
X142175746Y-98767142D01*
X142390031Y-98838571D01*
X142532889Y-98838571D01*
X142747174Y-98767142D01*
X142890031Y-98624285D01*
X142961460Y-98481428D01*
X143032889Y-98195714D01*
X143032889Y-97981428D01*
X142961460Y-97695714D01*
X142890031Y-97552857D01*
X142747174Y-97410000D01*
X142532889Y-97338571D01*
X142390031Y-97338571D01*
X142175746Y-97410000D01*
X142104317Y-97481428D01*
M02*
