%TF.GenerationSoftware,KiCad,Pcbnew,(6.0.11)*%
%TF.CreationDate,2024-01-05T00:57:36+00:00*%
%TF.ProjectId,Econet_ID_Extender_Internal,45636f6e-6574-45f4-9944-5f457874656e,rev?*%
%TF.SameCoordinates,Original*%
%TF.FileFunction,Drillmap*%
%TF.FilePolarity,Positive*%
%FSLAX45Y45*%
G04 Gerber Fmt 4.5, Leading zero omitted, Abs format (unit mm)*
G04 Created by KiCad (PCBNEW (6.0.11)) date 2024-01-05 00:57:36*
%MOMM*%
%LPD*%
G01*
G04 APERTURE LIST*
%ADD10C,0.100000*%
%ADD11C,0.200000*%
%ADD12C,0.040000*%
G04 APERTURE END LIST*
D10*
X16623578Y-9951578D02*
G75*
G03*
X16823578Y-9751578I2J199998D01*
G01*
X16824578Y-8751000D02*
X16823578Y-9751578D01*
X13453000Y-8551000D02*
X16623578Y-8551000D01*
X13253000Y-9751000D02*
G75*
G03*
X13453000Y-9951000I200000J0D01*
G01*
X16824580Y-8751000D02*
G75*
G03*
X16624578Y-8551000I-200000J0D01*
G01*
X13453000Y-8551000D02*
G75*
G03*
X13253000Y-8751000I0J-200000D01*
G01*
X13253000Y-9751000D02*
X13253000Y-8751000D01*
X16623578Y-9951578D02*
X13453000Y-9951000D01*
D11*
D12*
X13605500Y-8752500D02*
X13645500Y-8792500D01*
X13645500Y-8752500D02*
X13605500Y-8792500D01*
X13891000Y-9816000D02*
X13931000Y-9856000D01*
X13931000Y-9816000D02*
X13891000Y-9856000D01*
X13897000Y-8774000D02*
X13937000Y-8814000D01*
X13937000Y-8774000D02*
X13897000Y-8814000D01*
X14153000Y-8768000D02*
X14193000Y-8808000D01*
X14193000Y-8768000D02*
X14153000Y-8808000D01*
X14153450Y-9765550D02*
X14193450Y-9805550D01*
X14193450Y-9765550D02*
X14153450Y-9805550D01*
X14371000Y-9245000D02*
X14411000Y-9285000D01*
X14411000Y-9245000D02*
X14371000Y-9285000D01*
X14397000Y-8774000D02*
X14437000Y-8814000D01*
X14437000Y-8774000D02*
X14397000Y-8814000D01*
X14414000Y-9703550D02*
X14454000Y-9743550D01*
X14454000Y-9703550D02*
X14414000Y-9743550D01*
X14644000Y-8766000D02*
X14684000Y-8806000D01*
X14684000Y-8766000D02*
X14644000Y-8806000D01*
X14873000Y-9288000D02*
X14913000Y-9328000D01*
X14913000Y-9288000D02*
X14873000Y-9328000D01*
X14912220Y-8774427D02*
X14952220Y-8814427D01*
X14952220Y-8774427D02*
X14912220Y-8814427D01*
X15023000Y-9208000D02*
X15063000Y-9248000D01*
X15063000Y-9208000D02*
X15023000Y-9248000D01*
D10*
X15858000Y-8970000D02*
G75*
G03*
X15858000Y-8970000I-50000J0D01*
G01*
X15858000Y-9224000D02*
G75*
G03*
X15858000Y-9224000I-50000J0D01*
G01*
X15858000Y-9478000D02*
G75*
G03*
X15858000Y-9478000I-50000J0D01*
G01*
D11*
X13505619Y-10267054D02*
X13505619Y-10067054D01*
X13553238Y-10067054D01*
X13581809Y-10076578D01*
X13600857Y-10095626D01*
X13610380Y-10114673D01*
X13619904Y-10152769D01*
X13619904Y-10181340D01*
X13610380Y-10219435D01*
X13600857Y-10238483D01*
X13581809Y-10257531D01*
X13553238Y-10267054D01*
X13505619Y-10267054D01*
X13705619Y-10267054D02*
X13705619Y-10133721D01*
X13705619Y-10171816D02*
X13715142Y-10152769D01*
X13724666Y-10143245D01*
X13743714Y-10133721D01*
X13762761Y-10133721D01*
X13829428Y-10267054D02*
X13829428Y-10133721D01*
X13829428Y-10067054D02*
X13819904Y-10076578D01*
X13829428Y-10086102D01*
X13838952Y-10076578D01*
X13829428Y-10067054D01*
X13829428Y-10086102D01*
X13953238Y-10267054D02*
X13934190Y-10257531D01*
X13924666Y-10238483D01*
X13924666Y-10067054D01*
X14058000Y-10267054D02*
X14038952Y-10257531D01*
X14029428Y-10238483D01*
X14029428Y-10067054D01*
X14286571Y-10267054D02*
X14286571Y-10067054D01*
X14353238Y-10209912D01*
X14419904Y-10067054D01*
X14419904Y-10267054D01*
X14600857Y-10267054D02*
X14600857Y-10162292D01*
X14591333Y-10143245D01*
X14572285Y-10133721D01*
X14534190Y-10133721D01*
X14515142Y-10143245D01*
X14600857Y-10257531D02*
X14581809Y-10267054D01*
X14534190Y-10267054D01*
X14515142Y-10257531D01*
X14505619Y-10238483D01*
X14505619Y-10219435D01*
X14515142Y-10200388D01*
X14534190Y-10190864D01*
X14581809Y-10190864D01*
X14600857Y-10181340D01*
X14696095Y-10133721D02*
X14696095Y-10333721D01*
X14696095Y-10143245D02*
X14715142Y-10133721D01*
X14753238Y-10133721D01*
X14772285Y-10143245D01*
X14781809Y-10152769D01*
X14791333Y-10171816D01*
X14791333Y-10228959D01*
X14781809Y-10248007D01*
X14772285Y-10257531D01*
X14753238Y-10267054D01*
X14715142Y-10267054D01*
X14696095Y-10257531D01*
X14877047Y-10248007D02*
X14886571Y-10257531D01*
X14877047Y-10267054D01*
X14867523Y-10257531D01*
X14877047Y-10248007D01*
X14877047Y-10267054D01*
X14877047Y-10143245D02*
X14886571Y-10152769D01*
X14877047Y-10162292D01*
X14867523Y-10152769D01*
X14877047Y-10143245D01*
X14877047Y-10162292D01*
D12*
X13208000Y-10576578D02*
X13248000Y-10616578D01*
X13248000Y-10576578D02*
X13208000Y-10616578D01*
D11*
X13543714Y-10487054D02*
X13562761Y-10487054D01*
X13581809Y-10496578D01*
X13591333Y-10506102D01*
X13600857Y-10525150D01*
X13610380Y-10563245D01*
X13610380Y-10610864D01*
X13600857Y-10648959D01*
X13591333Y-10668007D01*
X13581809Y-10677531D01*
X13562761Y-10687054D01*
X13543714Y-10687054D01*
X13524666Y-10677531D01*
X13515142Y-10668007D01*
X13505619Y-10648959D01*
X13496095Y-10610864D01*
X13496095Y-10563245D01*
X13505619Y-10525150D01*
X13515142Y-10506102D01*
X13524666Y-10496578D01*
X13543714Y-10487054D01*
X13696095Y-10668007D02*
X13705619Y-10677531D01*
X13696095Y-10687054D01*
X13686571Y-10677531D01*
X13696095Y-10668007D01*
X13696095Y-10687054D01*
X13877047Y-10553721D02*
X13877047Y-10687054D01*
X13829428Y-10477531D02*
X13781809Y-10620388D01*
X13905619Y-10620388D01*
X14019904Y-10487054D02*
X14038952Y-10487054D01*
X14058000Y-10496578D01*
X14067523Y-10506102D01*
X14077047Y-10525150D01*
X14086571Y-10563245D01*
X14086571Y-10610864D01*
X14077047Y-10648959D01*
X14067523Y-10668007D01*
X14058000Y-10677531D01*
X14038952Y-10687054D01*
X14019904Y-10687054D01*
X14000857Y-10677531D01*
X13991333Y-10668007D01*
X13981809Y-10648959D01*
X13972285Y-10610864D01*
X13972285Y-10563245D01*
X13981809Y-10525150D01*
X13991333Y-10506102D01*
X14000857Y-10496578D01*
X14019904Y-10487054D01*
X14210380Y-10487054D02*
X14229428Y-10487054D01*
X14248476Y-10496578D01*
X14258000Y-10506102D01*
X14267523Y-10525150D01*
X14277047Y-10563245D01*
X14277047Y-10610864D01*
X14267523Y-10648959D01*
X14258000Y-10668007D01*
X14248476Y-10677531D01*
X14229428Y-10687054D01*
X14210380Y-10687054D01*
X14191333Y-10677531D01*
X14181809Y-10668007D01*
X14172285Y-10648959D01*
X14162761Y-10610864D01*
X14162761Y-10563245D01*
X14172285Y-10525150D01*
X14181809Y-10506102D01*
X14191333Y-10496578D01*
X14210380Y-10487054D01*
X14362761Y-10687054D02*
X14362761Y-10553721D01*
X14362761Y-10572769D02*
X14372285Y-10563245D01*
X14391333Y-10553721D01*
X14419904Y-10553721D01*
X14438952Y-10563245D01*
X14448476Y-10582292D01*
X14448476Y-10687054D01*
X14448476Y-10582292D02*
X14458000Y-10563245D01*
X14477047Y-10553721D01*
X14505619Y-10553721D01*
X14524666Y-10563245D01*
X14534190Y-10582292D01*
X14534190Y-10687054D01*
X14629428Y-10687054D02*
X14629428Y-10553721D01*
X14629428Y-10572769D02*
X14638952Y-10563245D01*
X14658000Y-10553721D01*
X14686571Y-10553721D01*
X14705619Y-10563245D01*
X14715142Y-10582292D01*
X14715142Y-10687054D01*
X14715142Y-10582292D02*
X14724666Y-10563245D01*
X14743714Y-10553721D01*
X14772285Y-10553721D01*
X14791333Y-10563245D01*
X14800857Y-10582292D01*
X14800857Y-10687054D01*
X15191333Y-10477531D02*
X15019904Y-10734673D01*
X15448476Y-10487054D02*
X15467523Y-10487054D01*
X15486571Y-10496578D01*
X15496095Y-10506102D01*
X15505619Y-10525150D01*
X15515142Y-10563245D01*
X15515142Y-10610864D01*
X15505619Y-10648959D01*
X15496095Y-10668007D01*
X15486571Y-10677531D01*
X15467523Y-10687054D01*
X15448476Y-10687054D01*
X15429428Y-10677531D01*
X15419904Y-10668007D01*
X15410380Y-10648959D01*
X15400857Y-10610864D01*
X15400857Y-10563245D01*
X15410380Y-10525150D01*
X15419904Y-10506102D01*
X15429428Y-10496578D01*
X15448476Y-10487054D01*
X15600857Y-10668007D02*
X15610380Y-10677531D01*
X15600857Y-10687054D01*
X15591333Y-10677531D01*
X15600857Y-10668007D01*
X15600857Y-10687054D01*
X15734190Y-10487054D02*
X15753238Y-10487054D01*
X15772285Y-10496578D01*
X15781809Y-10506102D01*
X15791333Y-10525150D01*
X15800857Y-10563245D01*
X15800857Y-10610864D01*
X15791333Y-10648959D01*
X15781809Y-10668007D01*
X15772285Y-10677531D01*
X15753238Y-10687054D01*
X15734190Y-10687054D01*
X15715142Y-10677531D01*
X15705619Y-10668007D01*
X15696095Y-10648959D01*
X15686571Y-10610864D01*
X15686571Y-10563245D01*
X15696095Y-10525150D01*
X15705619Y-10506102D01*
X15715142Y-10496578D01*
X15734190Y-10487054D01*
X15991333Y-10687054D02*
X15877047Y-10687054D01*
X15934190Y-10687054D02*
X15934190Y-10487054D01*
X15915142Y-10515626D01*
X15896095Y-10534673D01*
X15877047Y-10544197D01*
X16172285Y-10487054D02*
X16077047Y-10487054D01*
X16067523Y-10582292D01*
X16077047Y-10572769D01*
X16096095Y-10563245D01*
X16143714Y-10563245D01*
X16162761Y-10572769D01*
X16172285Y-10582292D01*
X16181809Y-10601340D01*
X16181809Y-10648959D01*
X16172285Y-10668007D01*
X16162761Y-10677531D01*
X16143714Y-10687054D01*
X16096095Y-10687054D01*
X16077047Y-10677531D01*
X16067523Y-10668007D01*
X16248476Y-10487054D02*
X16381809Y-10487054D01*
X16296095Y-10687054D01*
X16448476Y-10487054D02*
X16448476Y-10525150D01*
X16524666Y-10487054D02*
X16524666Y-10525150D01*
X16819904Y-10763245D02*
X16810381Y-10753721D01*
X16791333Y-10725150D01*
X16781809Y-10706102D01*
X16772285Y-10677531D01*
X16762761Y-10629912D01*
X16762761Y-10591816D01*
X16772285Y-10544197D01*
X16781809Y-10515626D01*
X16791333Y-10496578D01*
X16810381Y-10468007D01*
X16819904Y-10458483D01*
X17000857Y-10687054D02*
X16886571Y-10687054D01*
X16943714Y-10687054D02*
X16943714Y-10487054D01*
X16924666Y-10515626D01*
X16905619Y-10534673D01*
X16886571Y-10544197D01*
X17077047Y-10506102D02*
X17086571Y-10496578D01*
X17105619Y-10487054D01*
X17153238Y-10487054D01*
X17172285Y-10496578D01*
X17181809Y-10506102D01*
X17191333Y-10525150D01*
X17191333Y-10544197D01*
X17181809Y-10572769D01*
X17067523Y-10687054D01*
X17191333Y-10687054D01*
X17429428Y-10687054D02*
X17429428Y-10487054D01*
X17515142Y-10687054D02*
X17515142Y-10582292D01*
X17505619Y-10563245D01*
X17486571Y-10553721D01*
X17458000Y-10553721D01*
X17438952Y-10563245D01*
X17429428Y-10572769D01*
X17638952Y-10687054D02*
X17619904Y-10677531D01*
X17610381Y-10668007D01*
X17600857Y-10648959D01*
X17600857Y-10591816D01*
X17610381Y-10572769D01*
X17619904Y-10563245D01*
X17638952Y-10553721D01*
X17667523Y-10553721D01*
X17686571Y-10563245D01*
X17696095Y-10572769D01*
X17705619Y-10591816D01*
X17705619Y-10648959D01*
X17696095Y-10668007D01*
X17686571Y-10677531D01*
X17667523Y-10687054D01*
X17638952Y-10687054D01*
X17819904Y-10687054D02*
X17800857Y-10677531D01*
X17791333Y-10658483D01*
X17791333Y-10487054D01*
X17972285Y-10677531D02*
X17953238Y-10687054D01*
X17915142Y-10687054D01*
X17896095Y-10677531D01*
X17886571Y-10658483D01*
X17886571Y-10582292D01*
X17896095Y-10563245D01*
X17915142Y-10553721D01*
X17953238Y-10553721D01*
X17972285Y-10563245D01*
X17981809Y-10582292D01*
X17981809Y-10601340D01*
X17886571Y-10620388D01*
X18058000Y-10677531D02*
X18077047Y-10687054D01*
X18115142Y-10687054D01*
X18134190Y-10677531D01*
X18143714Y-10658483D01*
X18143714Y-10648959D01*
X18134190Y-10629912D01*
X18115142Y-10620388D01*
X18086571Y-10620388D01*
X18067523Y-10610864D01*
X18058000Y-10591816D01*
X18058000Y-10582292D01*
X18067523Y-10563245D01*
X18086571Y-10553721D01*
X18115142Y-10553721D01*
X18134190Y-10563245D01*
X18210381Y-10763245D02*
X18219904Y-10753721D01*
X18238952Y-10725150D01*
X18248476Y-10706102D01*
X18258000Y-10677531D01*
X18267523Y-10629912D01*
X18267523Y-10591816D01*
X18258000Y-10544197D01*
X18248476Y-10515626D01*
X18238952Y-10496578D01*
X18219904Y-10468007D01*
X18210381Y-10458483D01*
D10*
X13248000Y-10860578D02*
G75*
G03*
X13248000Y-10860578I-50000J0D01*
G01*
D11*
X13610380Y-10951054D02*
X13496095Y-10951054D01*
X13553238Y-10951054D02*
X13553238Y-10751054D01*
X13534190Y-10779626D01*
X13515142Y-10798673D01*
X13496095Y-10808197D01*
X13696095Y-10932007D02*
X13705619Y-10941531D01*
X13696095Y-10951054D01*
X13686571Y-10941531D01*
X13696095Y-10932007D01*
X13696095Y-10951054D01*
X13829428Y-10751054D02*
X13848476Y-10751054D01*
X13867523Y-10760578D01*
X13877047Y-10770102D01*
X13886571Y-10789150D01*
X13896095Y-10827245D01*
X13896095Y-10874864D01*
X13886571Y-10912959D01*
X13877047Y-10932007D01*
X13867523Y-10941531D01*
X13848476Y-10951054D01*
X13829428Y-10951054D01*
X13810380Y-10941531D01*
X13800857Y-10932007D01*
X13791333Y-10912959D01*
X13781809Y-10874864D01*
X13781809Y-10827245D01*
X13791333Y-10789150D01*
X13800857Y-10770102D01*
X13810380Y-10760578D01*
X13829428Y-10751054D01*
X14019904Y-10751054D02*
X14038952Y-10751054D01*
X14058000Y-10760578D01*
X14067523Y-10770102D01*
X14077047Y-10789150D01*
X14086571Y-10827245D01*
X14086571Y-10874864D01*
X14077047Y-10912959D01*
X14067523Y-10932007D01*
X14058000Y-10941531D01*
X14038952Y-10951054D01*
X14019904Y-10951054D01*
X14000857Y-10941531D01*
X13991333Y-10932007D01*
X13981809Y-10912959D01*
X13972285Y-10874864D01*
X13972285Y-10827245D01*
X13981809Y-10789150D01*
X13991333Y-10770102D01*
X14000857Y-10760578D01*
X14019904Y-10751054D01*
X14210380Y-10751054D02*
X14229428Y-10751054D01*
X14248476Y-10760578D01*
X14258000Y-10770102D01*
X14267523Y-10789150D01*
X14277047Y-10827245D01*
X14277047Y-10874864D01*
X14267523Y-10912959D01*
X14258000Y-10932007D01*
X14248476Y-10941531D01*
X14229428Y-10951054D01*
X14210380Y-10951054D01*
X14191333Y-10941531D01*
X14181809Y-10932007D01*
X14172285Y-10912959D01*
X14162761Y-10874864D01*
X14162761Y-10827245D01*
X14172285Y-10789150D01*
X14181809Y-10770102D01*
X14191333Y-10760578D01*
X14210380Y-10751054D01*
X14362761Y-10951054D02*
X14362761Y-10817721D01*
X14362761Y-10836769D02*
X14372285Y-10827245D01*
X14391333Y-10817721D01*
X14419904Y-10817721D01*
X14438952Y-10827245D01*
X14448476Y-10846292D01*
X14448476Y-10951054D01*
X14448476Y-10846292D02*
X14458000Y-10827245D01*
X14477047Y-10817721D01*
X14505619Y-10817721D01*
X14524666Y-10827245D01*
X14534190Y-10846292D01*
X14534190Y-10951054D01*
X14629428Y-10951054D02*
X14629428Y-10817721D01*
X14629428Y-10836769D02*
X14638952Y-10827245D01*
X14658000Y-10817721D01*
X14686571Y-10817721D01*
X14705619Y-10827245D01*
X14715142Y-10846292D01*
X14715142Y-10951054D01*
X14715142Y-10846292D02*
X14724666Y-10827245D01*
X14743714Y-10817721D01*
X14772285Y-10817721D01*
X14791333Y-10827245D01*
X14800857Y-10846292D01*
X14800857Y-10951054D01*
X15191333Y-10741531D02*
X15019904Y-10998673D01*
X15448476Y-10751054D02*
X15467523Y-10751054D01*
X15486571Y-10760578D01*
X15496095Y-10770102D01*
X15505619Y-10789150D01*
X15515142Y-10827245D01*
X15515142Y-10874864D01*
X15505619Y-10912959D01*
X15496095Y-10932007D01*
X15486571Y-10941531D01*
X15467523Y-10951054D01*
X15448476Y-10951054D01*
X15429428Y-10941531D01*
X15419904Y-10932007D01*
X15410380Y-10912959D01*
X15400857Y-10874864D01*
X15400857Y-10827245D01*
X15410380Y-10789150D01*
X15419904Y-10770102D01*
X15429428Y-10760578D01*
X15448476Y-10751054D01*
X15600857Y-10932007D02*
X15610380Y-10941531D01*
X15600857Y-10951054D01*
X15591333Y-10941531D01*
X15600857Y-10932007D01*
X15600857Y-10951054D01*
X15734190Y-10751054D02*
X15753238Y-10751054D01*
X15772285Y-10760578D01*
X15781809Y-10770102D01*
X15791333Y-10789150D01*
X15800857Y-10827245D01*
X15800857Y-10874864D01*
X15791333Y-10912959D01*
X15781809Y-10932007D01*
X15772285Y-10941531D01*
X15753238Y-10951054D01*
X15734190Y-10951054D01*
X15715142Y-10941531D01*
X15705619Y-10932007D01*
X15696095Y-10912959D01*
X15686571Y-10874864D01*
X15686571Y-10827245D01*
X15696095Y-10789150D01*
X15705619Y-10770102D01*
X15715142Y-10760578D01*
X15734190Y-10751054D01*
X15867523Y-10751054D02*
X15991333Y-10751054D01*
X15924666Y-10827245D01*
X15953238Y-10827245D01*
X15972285Y-10836769D01*
X15981809Y-10846292D01*
X15991333Y-10865340D01*
X15991333Y-10912959D01*
X15981809Y-10932007D01*
X15972285Y-10941531D01*
X15953238Y-10951054D01*
X15896095Y-10951054D01*
X15877047Y-10941531D01*
X15867523Y-10932007D01*
X16086571Y-10951054D02*
X16124666Y-10951054D01*
X16143714Y-10941531D01*
X16153238Y-10932007D01*
X16172285Y-10903435D01*
X16181809Y-10865340D01*
X16181809Y-10789150D01*
X16172285Y-10770102D01*
X16162761Y-10760578D01*
X16143714Y-10751054D01*
X16105619Y-10751054D01*
X16086571Y-10760578D01*
X16077047Y-10770102D01*
X16067523Y-10789150D01*
X16067523Y-10836769D01*
X16077047Y-10855816D01*
X16086571Y-10865340D01*
X16105619Y-10874864D01*
X16143714Y-10874864D01*
X16162761Y-10865340D01*
X16172285Y-10855816D01*
X16181809Y-10836769D01*
X16353238Y-10817721D02*
X16353238Y-10951054D01*
X16305619Y-10741531D02*
X16258000Y-10884388D01*
X16381809Y-10884388D01*
X16448476Y-10751054D02*
X16448476Y-10789150D01*
X16524666Y-10751054D02*
X16524666Y-10789150D01*
X16819904Y-11027245D02*
X16810381Y-11017721D01*
X16791333Y-10989150D01*
X16781809Y-10970102D01*
X16772285Y-10941531D01*
X16762761Y-10893912D01*
X16762761Y-10855816D01*
X16772285Y-10808197D01*
X16781809Y-10779626D01*
X16791333Y-10760578D01*
X16810381Y-10732007D01*
X16819904Y-10722483D01*
X16877047Y-10751054D02*
X17000857Y-10751054D01*
X16934190Y-10827245D01*
X16962762Y-10827245D01*
X16981809Y-10836769D01*
X16991333Y-10846292D01*
X17000857Y-10865340D01*
X17000857Y-10912959D01*
X16991333Y-10932007D01*
X16981809Y-10941531D01*
X16962762Y-10951054D01*
X16905619Y-10951054D01*
X16886571Y-10941531D01*
X16877047Y-10932007D01*
X17238952Y-10951054D02*
X17238952Y-10751054D01*
X17324666Y-10951054D02*
X17324666Y-10846292D01*
X17315142Y-10827245D01*
X17296095Y-10817721D01*
X17267523Y-10817721D01*
X17248476Y-10827245D01*
X17238952Y-10836769D01*
X17448476Y-10951054D02*
X17429428Y-10941531D01*
X17419904Y-10932007D01*
X17410381Y-10912959D01*
X17410381Y-10855816D01*
X17419904Y-10836769D01*
X17429428Y-10827245D01*
X17448476Y-10817721D01*
X17477047Y-10817721D01*
X17496095Y-10827245D01*
X17505619Y-10836769D01*
X17515142Y-10855816D01*
X17515142Y-10912959D01*
X17505619Y-10932007D01*
X17496095Y-10941531D01*
X17477047Y-10951054D01*
X17448476Y-10951054D01*
X17629428Y-10951054D02*
X17610381Y-10941531D01*
X17600857Y-10922483D01*
X17600857Y-10751054D01*
X17781809Y-10941531D02*
X17762762Y-10951054D01*
X17724666Y-10951054D01*
X17705619Y-10941531D01*
X17696095Y-10922483D01*
X17696095Y-10846292D01*
X17705619Y-10827245D01*
X17724666Y-10817721D01*
X17762762Y-10817721D01*
X17781809Y-10827245D01*
X17791333Y-10846292D01*
X17791333Y-10865340D01*
X17696095Y-10884388D01*
X17867523Y-10941531D02*
X17886571Y-10951054D01*
X17924666Y-10951054D01*
X17943714Y-10941531D01*
X17953238Y-10922483D01*
X17953238Y-10912959D01*
X17943714Y-10893912D01*
X17924666Y-10884388D01*
X17896095Y-10884388D01*
X17877047Y-10874864D01*
X17867523Y-10855816D01*
X17867523Y-10846292D01*
X17877047Y-10827245D01*
X17896095Y-10817721D01*
X17924666Y-10817721D01*
X17943714Y-10827245D01*
X18019904Y-11027245D02*
X18029428Y-11017721D01*
X18048476Y-10989150D01*
X18058000Y-10970102D01*
X18067523Y-10941531D01*
X18077047Y-10893912D01*
X18077047Y-10855816D01*
X18067523Y-10808197D01*
X18058000Y-10779626D01*
X18048476Y-10760578D01*
X18029428Y-10732007D01*
X18019904Y-10722483D01*
M02*
