%TF.GenerationSoftware,KiCad,Pcbnew,(6.0.11)*%
%TF.CreationDate,2024-01-05T00:57:37+00:00*%
%TF.ProjectId,Econet_ID_Extender_Internal,45636f6e-6574-45f4-9944-5f457874656e,rev?*%
%TF.SameCoordinates,Original*%
%TF.FileFunction,Drillmap*%
%TF.FilePolarity,Positive*%
%FSLAX45Y45*%
G04 Gerber Fmt 4.5, Leading zero omitted, Abs format (unit mm)*
G04 Created by KiCad (PCBNEW (6.0.11)) date 2024-01-05 00:57:37*
%MOMM*%
%LPD*%
G01*
G04 APERTURE LIST*
%ADD10C,0.100000*%
%ADD11C,0.200000*%
G04 APERTURE END LIST*
D10*
X16623578Y-9951578D02*
G75*
G03*
X16823578Y-9751578I2J199998D01*
G01*
X16824578Y-8751000D02*
X16823578Y-9751578D01*
X13453000Y-8551000D02*
X16623578Y-8551000D01*
X13253000Y-9751000D02*
G75*
G03*
X13453000Y-9951000I200000J0D01*
G01*
X16824580Y-8751000D02*
G75*
G03*
X16624578Y-8551000I-200000J0D01*
G01*
X13453000Y-8551000D02*
G75*
G03*
X13253000Y-8751000I0J-200000D01*
G01*
X13253000Y-9751000D02*
X13253000Y-8751000D01*
X16623578Y-9951578D02*
X13453000Y-9951000D01*
D11*
X13505619Y-10267054D02*
X13505619Y-10067054D01*
X13553238Y-10067054D01*
X13581809Y-10076578D01*
X13600857Y-10095626D01*
X13610380Y-10114673D01*
X13619904Y-10152769D01*
X13619904Y-10181340D01*
X13610380Y-10219435D01*
X13600857Y-10238483D01*
X13581809Y-10257531D01*
X13553238Y-10267054D01*
X13505619Y-10267054D01*
X13705619Y-10267054D02*
X13705619Y-10133721D01*
X13705619Y-10171816D02*
X13715142Y-10152769D01*
X13724666Y-10143245D01*
X13743714Y-10133721D01*
X13762761Y-10133721D01*
X13829428Y-10267054D02*
X13829428Y-10133721D01*
X13829428Y-10067054D02*
X13819904Y-10076578D01*
X13829428Y-10086102D01*
X13838952Y-10076578D01*
X13829428Y-10067054D01*
X13829428Y-10086102D01*
X13953238Y-10267054D02*
X13934190Y-10257531D01*
X13924666Y-10238483D01*
X13924666Y-10067054D01*
X14058000Y-10267054D02*
X14038952Y-10257531D01*
X14029428Y-10238483D01*
X14029428Y-10067054D01*
X14286571Y-10267054D02*
X14286571Y-10067054D01*
X14353238Y-10209912D01*
X14419904Y-10067054D01*
X14419904Y-10267054D01*
X14600857Y-10267054D02*
X14600857Y-10162292D01*
X14591333Y-10143245D01*
X14572285Y-10133721D01*
X14534190Y-10133721D01*
X14515142Y-10143245D01*
X14600857Y-10257531D02*
X14581809Y-10267054D01*
X14534190Y-10267054D01*
X14515142Y-10257531D01*
X14505619Y-10238483D01*
X14505619Y-10219435D01*
X14515142Y-10200388D01*
X14534190Y-10190864D01*
X14581809Y-10190864D01*
X14600857Y-10181340D01*
X14696095Y-10133721D02*
X14696095Y-10333721D01*
X14696095Y-10143245D02*
X14715142Y-10133721D01*
X14753238Y-10133721D01*
X14772285Y-10143245D01*
X14781809Y-10152769D01*
X14791333Y-10171816D01*
X14791333Y-10228959D01*
X14781809Y-10248007D01*
X14772285Y-10257531D01*
X14753238Y-10267054D01*
X14715142Y-10267054D01*
X14696095Y-10257531D01*
X14877047Y-10248007D02*
X14886571Y-10257531D01*
X14877047Y-10267054D01*
X14867523Y-10257531D01*
X14877047Y-10248007D01*
X14877047Y-10267054D01*
X14877047Y-10143245D02*
X14886571Y-10152769D01*
X14877047Y-10162292D01*
X14867523Y-10152769D01*
X14877047Y-10143245D01*
X14877047Y-10162292D01*
M02*
