%TF.GenerationSoftware,KiCad,Pcbnew,(6.0.11)*%
%TF.CreationDate,2024-01-05T00:57:41+00:00*%
%TF.ProjectId,Econet_ID_Extender_Internal,45636f6e-6574-45f4-9944-5f457874656e,rev?*%
%TF.SameCoordinates,Original*%
%TF.FileFunction,Copper,L1,Top*%
%TF.FilePolarity,Positive*%
%FSLAX46Y46*%
G04 Gerber Fmt 4.6, Leading zero omitted, Abs format (unit mm)*
G04 Created by KiCad (PCBNEW (6.0.11)) date 2024-01-05 00:57:41*
%MOMM*%
%LPD*%
G01*
G04 APERTURE LIST*
G04 Aperture macros list*
%AMRoundRect*
0 Rectangle with rounded corners*
0 $1 Rounding radius*
0 $2 $3 $4 $5 $6 $7 $8 $9 X,Y pos of 4 corners*
0 Add a 4 corners polygon primitive as box body*
4,1,4,$2,$3,$4,$5,$6,$7,$8,$9,$2,$3,0*
0 Add four circle primitives for the rounded corners*
1,1,$1+$1,$2,$3*
1,1,$1+$1,$4,$5*
1,1,$1+$1,$6,$7*
1,1,$1+$1,$8,$9*
0 Add four rect primitives between the rounded corners*
20,1,$1+$1,$2,$3,$4,$5,0*
20,1,$1+$1,$4,$5,$6,$7,0*
20,1,$1+$1,$6,$7,$8,$9,0*
20,1,$1+$1,$8,$9,$2,$3,0*%
G04 Aperture macros list end*
%TA.AperFunction,ComponentPad*%
%ADD10R,1.700000X1.700000*%
%TD*%
%TA.AperFunction,ComponentPad*%
%ADD11O,1.700000X1.700000*%
%TD*%
%TA.AperFunction,SMDPad,CuDef*%
%ADD12RoundRect,0.255000X0.255000X-2.245000X0.255000X2.245000X-0.255000X2.245000X-0.255000X-2.245000X0*%
%TD*%
%TA.AperFunction,ViaPad*%
%ADD13C,0.800000*%
%TD*%
%TA.AperFunction,Conductor*%
%ADD14C,0.250000*%
%TD*%
G04 APERTURE END LIST*
D10*
%TO.P,J3,1,Pin_1*%
%TO.N,/I_AUD1*%
X158080000Y-89700000D03*
D11*
%TO.P,J3,2,Pin_2*%
%TO.N,/I_AUD2*%
X158080000Y-92240000D03*
%TO.P,J3,3,Pin_3*%
%TO.N,/I_AUD3*%
X158080000Y-94780000D03*
%TD*%
D12*
%TO.P,J1,1,Pin_1*%
%TO.N,/I_AUD3*%
X137874996Y-96374996D03*
%TO.P,J1,2,Pin_2*%
%TO.N,/I_SID_0*%
X137874996Y-88774996D03*
%TO.P,J1,3,Pin_3*%
%TO.N,/I_AUD2*%
X140414996Y-96374996D03*
%TO.P,J1,4,Pin_4*%
%TO.N,/I_SID_1*%
X140414996Y-88774996D03*
%TO.P,J1,5,Pin_5*%
%TO.N,/I_AUD1*%
X142954996Y-96374996D03*
%TO.P,J1,6,Pin_6*%
%TO.N,/I_SID_2*%
X142954996Y-88774996D03*
%TO.P,J1,7,Pin_7*%
%TO.N,/I_GND*%
X145494996Y-96374996D03*
%TO.P,J1,8,Pin_8*%
%TO.N,/I_SID_3*%
X145494996Y-88774996D03*
%TO.P,J1,9,Pin_9*%
%TO.N,/I_SID_7*%
X148034996Y-96374996D03*
%TO.P,J1,10,Pin_10*%
%TO.N,/I_SID_4*%
X148034996Y-88774996D03*
%TO.P,J1,11,Pin_11*%
%TO.N,/I_SID_6*%
X150574996Y-96374996D03*
%TO.P,J1,12,Pin_12*%
%TO.N,/I_SID_5*%
X150574996Y-88774996D03*
%TD*%
D13*
%TO.N,/I_SID_7*%
X148930000Y-93080000D03*
%TO.N,/I_SID_6*%
X150430000Y-92280000D03*
%TO.N,/I_SID_5*%
X149322205Y-87944272D03*
%TO.N,/I_SID_4*%
X146640000Y-87860000D03*
%TO.N,/I_SID_3*%
X144170000Y-87940000D03*
%TO.N,/I_GND*%
X143910000Y-92650000D03*
%TO.N,/I_SID_2*%
X141730000Y-87880000D03*
%TO.N,/I_SID_1*%
X139170000Y-87940000D03*
%TO.N,/I_SID_0*%
X136255000Y-87725000D03*
%TO.N,/I_AUD3*%
X139110000Y-98360000D03*
%TO.N,/I_AUD2*%
X141734500Y-97855500D03*
%TO.N,/I_AUD1*%
X144340000Y-97235500D03*
%TD*%
D14*
%TO.N,/I_SID_7*%
X148034996Y-93975004D02*
X148930000Y-93080000D01*
X148034996Y-96374996D02*
X148034996Y-93975004D01*
%TO.N,/I_SID_6*%
X150430000Y-92280000D02*
X150574996Y-92424996D01*
X150574996Y-92424996D02*
X150574996Y-96374996D01*
%TO.N,/I_SID_5*%
X149744272Y-87944272D02*
X150574996Y-88774996D01*
X149322205Y-87944272D02*
X149744272Y-87944272D01*
%TO.N,/I_SID_4*%
X147120000Y-87860000D02*
X148034996Y-88774996D01*
X146640000Y-87860000D02*
X147120000Y-87860000D01*
%TO.N,/I_SID_3*%
X144170000Y-87940000D02*
X144660000Y-87940000D01*
X144660000Y-87940000D02*
X145494996Y-88774996D01*
%TO.N,/I_GND*%
X144740000Y-92650000D02*
X143910000Y-92650000D01*
X145494996Y-95594752D02*
X145450000Y-95549756D01*
X145494996Y-96374996D02*
X145494996Y-95594752D01*
X145450000Y-93360000D02*
X144740000Y-92650000D01*
X145450000Y-95549756D02*
X145450000Y-93360000D01*
%TO.N,/I_SID_2*%
X141730000Y-87880000D02*
X142060000Y-87880000D01*
X142060000Y-87880000D02*
X142954996Y-88774996D01*
%TO.N,/I_SID_1*%
X140414996Y-88774996D02*
X139580000Y-87940000D01*
X139580000Y-87940000D02*
X139170000Y-87940000D01*
%TO.N,/I_SID_0*%
X136825000Y-87725000D02*
X136255000Y-87725000D01*
X137874996Y-88774996D02*
X136825000Y-87725000D01*
%TO.N,/I_AUD3*%
X139110000Y-97610000D02*
X137874996Y-96374996D01*
X139110000Y-98360000D02*
X139110000Y-97610000D01*
%TO.N,/I_AUD2*%
X141734500Y-97694500D02*
X141734500Y-97855500D01*
X140414996Y-96374996D02*
X141734500Y-97694500D01*
%TO.N,/I_AUD1*%
X143815500Y-97235500D02*
X144340000Y-97235500D01*
X142954996Y-96374996D02*
X143815500Y-97235500D01*
%TD*%
M02*
