%TF.GenerationSoftware,KiCad,Pcbnew,(6.0.11)*%
%TF.CreationDate,2024-01-05T00:57:41+00:00*%
%TF.ProjectId,Econet_ID_Extender_Internal,45636f6e-6574-45f4-9944-5f457874656e,rev?*%
%TF.SameCoordinates,Original*%
%TF.FileFunction,Copper,L2,Bot*%
%TF.FilePolarity,Positive*%
%FSLAX46Y46*%
G04 Gerber Fmt 4.6, Leading zero omitted, Abs format (unit mm)*
G04 Created by KiCad (PCBNEW (6.0.11)) date 2024-01-05 00:57:41*
%MOMM*%
%LPD*%
G01*
G04 APERTURE LIST*
%TA.AperFunction,ComponentPad*%
%ADD10R,1.700000X1.700000*%
%TD*%
%TA.AperFunction,ComponentPad*%
%ADD11O,1.700000X1.700000*%
%TD*%
%TA.AperFunction,SMDPad,CuDef*%
%ADD12R,1.000000X3.000000*%
%TD*%
%TA.AperFunction,ViaPad*%
%ADD13C,0.800000*%
%TD*%
%TA.AperFunction,Conductor*%
%ADD14C,0.250000*%
%TD*%
G04 APERTURE END LIST*
D10*
%TO.P,J3,1,Pin_1*%
%TO.N,/I_AUD1*%
X158080000Y-89700000D03*
D11*
%TO.P,J3,2,Pin_2*%
%TO.N,/I_AUD2*%
X158080000Y-92240000D03*
%TO.P,J3,3,Pin_3*%
%TO.N,/I_AUD3*%
X158080000Y-94780000D03*
%TD*%
D12*
%TO.P,J2,1,Pin_1*%
%TO.N,/I_SID_7*%
X152489996Y-90029996D03*
%TO.P,J2,2,Pin_2*%
%TO.N,unconnected-(J2-Pad2)*%
X152489996Y-95069996D03*
%TO.P,J2,3,Pin_3*%
%TO.N,/I_SID_6*%
X149949996Y-90029996D03*
%TO.P,J2,4,Pin_4*%
%TO.N,unconnected-(J2-Pad4)*%
X149949996Y-95069996D03*
%TO.P,J2,5,Pin_5*%
%TO.N,/I_SID_5*%
X147409996Y-90029996D03*
%TO.P,J2,6,Pin_6*%
%TO.N,unconnected-(J2-Pad6)*%
X147409996Y-95069996D03*
%TO.P,J2,7,Pin_7*%
%TO.N,/I_SID_4*%
X144869996Y-90029996D03*
%TO.P,J2,8,Pin_8*%
%TO.N,unconnected-(J2-Pad8)*%
X144869996Y-95069996D03*
%TO.P,J2,9,Pin_9*%
%TO.N,/I_SID_3*%
X142329996Y-90029996D03*
%TO.P,J2,10,Pin_10*%
%TO.N,/I_GND*%
X142329996Y-95069996D03*
%TO.P,J2,11,Pin_11*%
%TO.N,/I_SID_2*%
X139789996Y-90029996D03*
%TO.P,J2,12,Pin_12*%
%TO.N,unconnected-(J2-Pad12)*%
X139789996Y-95069996D03*
%TO.P,J2,13,Pin_13*%
%TO.N,/I_SID_1*%
X137249996Y-90029996D03*
%TO.P,J2,14,Pin_14*%
%TO.N,unconnected-(J2-Pad14)*%
X137249996Y-95069996D03*
%TO.P,J2,15,Pin_15*%
%TO.N,/I_SID_0*%
X134709996Y-90029996D03*
%TO.P,J2,16,Pin_16*%
%TO.N,unconnected-(J2-Pad16)*%
X134709996Y-95069996D03*
%TD*%
D13*
%TO.N,/I_SID_7*%
X148930000Y-93080000D03*
%TO.N,/I_SID_6*%
X150430000Y-92280000D03*
%TO.N,/I_SID_5*%
X149322205Y-87944272D03*
%TO.N,/I_SID_4*%
X146640000Y-87860000D03*
%TO.N,/I_SID_3*%
X144170000Y-87940000D03*
%TO.N,/I_GND*%
X143910000Y-92650000D03*
%TO.N,/I_SID_2*%
X141730000Y-87880000D03*
%TO.N,/I_SID_1*%
X139170000Y-87940000D03*
%TO.N,/I_SID_0*%
X136255000Y-87725000D03*
%TO.N,/I_AUD3*%
X139110000Y-98360000D03*
%TO.N,/I_AUD2*%
X141734500Y-97855500D03*
%TO.N,/I_AUD1*%
X144340000Y-97235500D03*
%TD*%
D14*
%TO.N,/I_SID_7*%
X152489996Y-91779996D02*
X151189992Y-93080000D01*
X151189992Y-93080000D02*
X148930000Y-93080000D01*
X152489996Y-90029996D02*
X152489996Y-91779996D01*
%TO.N,/I_SID_6*%
X149949996Y-90029996D02*
X149949996Y-91799996D01*
X149949996Y-91799996D02*
X150430000Y-92280000D01*
%TO.N,/I_SID_5*%
X147409996Y-89856481D02*
X149322205Y-87944272D01*
X147409996Y-90029996D02*
X147409996Y-89856481D01*
%TO.N,/I_SID_4*%
X144869996Y-90029996D02*
X144869996Y-89630004D01*
X144869996Y-89630004D02*
X146640000Y-87860000D01*
%TO.N,/I_SID_3*%
X142329996Y-90029996D02*
X142329996Y-89780004D01*
X142329996Y-89780004D02*
X144170000Y-87940000D01*
%TO.N,/I_GND*%
X142329996Y-93510004D02*
X142329996Y-95069996D01*
X143910000Y-92650000D02*
X143190000Y-92650000D01*
X143190000Y-92650000D02*
X142329996Y-93510004D01*
%TO.N,/I_SID_2*%
X141730000Y-88089992D02*
X141730000Y-87880000D01*
X139789996Y-90029996D02*
X141730000Y-88089992D01*
%TO.N,/I_SID_1*%
X137249996Y-90029996D02*
X139170000Y-88109992D01*
X139170000Y-88109992D02*
X139170000Y-87940000D01*
%TO.N,/I_SID_0*%
X134709996Y-90029996D02*
X134709996Y-89270004D01*
X134709996Y-89270004D02*
X136255000Y-87725000D01*
%TO.N,/I_AUD3*%
X154210000Y-98580000D02*
X139330000Y-98580000D01*
X158010000Y-94780000D02*
X154210000Y-98580000D01*
X158080000Y-94780000D02*
X158010000Y-94780000D01*
X139330000Y-98580000D02*
X139110000Y-98360000D01*
%TO.N,/I_AUD2*%
X156469501Y-95684809D02*
X154194310Y-97960000D01*
X154194310Y-97960000D02*
X141839000Y-97960000D01*
X156469501Y-93850499D02*
X156469501Y-95684809D01*
X158080000Y-92240000D02*
X156469501Y-93850499D01*
X141839000Y-97960000D02*
X141734500Y-97855500D01*
%TO.N,/I_AUD1*%
X154148620Y-97370000D02*
X144474500Y-97370000D01*
X158080000Y-89700000D02*
X156020000Y-91760000D01*
X156020000Y-91760000D02*
X156020000Y-95498620D01*
X156020000Y-95498620D02*
X154148620Y-97370000D01*
X144474500Y-97370000D02*
X144340000Y-97235500D01*
%TD*%
M02*
