%TF.GenerationSoftware,KiCad,Pcbnew,(6.0.11)*%
%TF.CreationDate,2024-01-05T00:58:55+00:00*%
%TF.ProjectId,Econet_ID_Extender_Bracket,45636f6e-6574-45f4-9944-5f457874656e,rev?*%
%TF.SameCoordinates,Original*%
%TF.FileFunction,Drillmap*%
%TF.FilePolarity,Positive*%
%FSLAX45Y45*%
G04 Gerber Fmt 4.5, Leading zero omitted, Abs format (unit mm)*
G04 Created by KiCad (PCBNEW (6.0.11)) date 2024-01-05 00:58:55*
%MOMM*%
%LPD*%
G01*
G04 APERTURE LIST*
%ADD10C,0.200000*%
G04 APERTURE END LIST*
D10*
X16200000Y-6970000D02*
X16200000Y-7241000D01*
X16200000Y-6970000D02*
X16526000Y-6970000D01*
X15000000Y-4920000D02*
X15400000Y-4920000D01*
X16526000Y-5970000D02*
X16526000Y-5470000D01*
X15000000Y-4920000D02*
X15000000Y-7020000D01*
X16526000Y-6970000D02*
X16526000Y-6470000D01*
X15800000Y-7241000D02*
X15800000Y-6020000D01*
X15800000Y-5320000D02*
X15800000Y-5020000D01*
X16200000Y-6470000D02*
X16526000Y-6470000D01*
X15800000Y-7241000D02*
X16200000Y-7241000D01*
X15400000Y-5320000D02*
X15400000Y-4920000D01*
X15400000Y-7020000D02*
X15400000Y-6020000D01*
X16200000Y-5970000D02*
X16200000Y-6470000D01*
X15000000Y-7020000D02*
X15400000Y-7020000D01*
X16200000Y-5020000D02*
X16200000Y-5470000D01*
X15400000Y-5320000D02*
X15800000Y-5320000D01*
X16200000Y-5470000D02*
X16526000Y-5470000D01*
X15400000Y-6020000D02*
X15800000Y-6020000D01*
X16200000Y-5970000D02*
X16526000Y-5970000D01*
X15800000Y-5020000D02*
X16200000Y-5020000D01*
X15247619Y-7561476D02*
X15247619Y-7361476D01*
X15295238Y-7361476D01*
X15323809Y-7371000D01*
X15342857Y-7390048D01*
X15352381Y-7409095D01*
X15361905Y-7447190D01*
X15361905Y-7475762D01*
X15352381Y-7513857D01*
X15342857Y-7532905D01*
X15323809Y-7551952D01*
X15295238Y-7561476D01*
X15247619Y-7561476D01*
X15447619Y-7561476D02*
X15447619Y-7428143D01*
X15447619Y-7466238D02*
X15457143Y-7447190D01*
X15466667Y-7437667D01*
X15485714Y-7428143D01*
X15504762Y-7428143D01*
X15571428Y-7561476D02*
X15571428Y-7428143D01*
X15571428Y-7361476D02*
X15561905Y-7371000D01*
X15571428Y-7380524D01*
X15580952Y-7371000D01*
X15571428Y-7361476D01*
X15571428Y-7380524D01*
X15695238Y-7561476D02*
X15676190Y-7551952D01*
X15666667Y-7532905D01*
X15666667Y-7361476D01*
X15800000Y-7561476D02*
X15780952Y-7551952D01*
X15771428Y-7532905D01*
X15771428Y-7361476D01*
X16028571Y-7561476D02*
X16028571Y-7361476D01*
X16095238Y-7504333D01*
X16161905Y-7361476D01*
X16161905Y-7561476D01*
X16342857Y-7561476D02*
X16342857Y-7456714D01*
X16333333Y-7437667D01*
X16314286Y-7428143D01*
X16276190Y-7428143D01*
X16257143Y-7437667D01*
X16342857Y-7551952D02*
X16323809Y-7561476D01*
X16276190Y-7561476D01*
X16257143Y-7551952D01*
X16247619Y-7532905D01*
X16247619Y-7513857D01*
X16257143Y-7494809D01*
X16276190Y-7485286D01*
X16323809Y-7485286D01*
X16342857Y-7475762D01*
X16438095Y-7428143D02*
X16438095Y-7628143D01*
X16438095Y-7437667D02*
X16457143Y-7428143D01*
X16495238Y-7428143D01*
X16514286Y-7437667D01*
X16523809Y-7447190D01*
X16533333Y-7466238D01*
X16533333Y-7523381D01*
X16523809Y-7542428D01*
X16514286Y-7551952D01*
X16495238Y-7561476D01*
X16457143Y-7561476D01*
X16438095Y-7551952D01*
X16619048Y-7542428D02*
X16628571Y-7551952D01*
X16619048Y-7561476D01*
X16609524Y-7551952D01*
X16619048Y-7542428D01*
X16619048Y-7561476D01*
X16619048Y-7437667D02*
X16628571Y-7447190D01*
X16619048Y-7456714D01*
X16609524Y-7447190D01*
X16619048Y-7437667D01*
X16619048Y-7456714D01*
M02*
