%TF.GenerationSoftware,KiCad,Pcbnew,(6.0.11)*%
%TF.CreationDate,2024-01-05T00:58:59+00:00*%
%TF.ProjectId,Econet_ID_Extender_Bracket,45636f6e-6574-45f4-9944-5f457874656e,rev?*%
%TF.SameCoordinates,Original*%
%TF.FileFunction,Profile,NP*%
%FSLAX46Y46*%
G04 Gerber Fmt 4.6, Leading zero omitted, Abs format (unit mm)*
G04 Created by KiCad (PCBNEW (6.0.11)) date 2024-01-05 00:58:59*
%MOMM*%
%LPD*%
G01*
G04 APERTURE LIST*
%TA.AperFunction,Profile*%
%ADD10C,0.200000*%
%TD*%
G04 APERTURE END LIST*
D10*
X162000000Y-69700000D02*
X162000000Y-72410000D01*
X162000000Y-69700000D02*
X165260000Y-69700000D01*
X150000000Y-49200000D02*
X154000000Y-49200000D01*
X165260000Y-59700000D02*
X165260000Y-54700000D01*
X150000000Y-49200000D02*
X150000000Y-70200000D01*
X165260000Y-69700000D02*
X165260000Y-64700000D01*
X158000000Y-72410000D02*
X158000000Y-60200000D01*
X158000000Y-53200000D02*
X158000000Y-50200000D01*
X162000000Y-64700000D02*
X165260000Y-64700000D01*
X158000000Y-72410000D02*
X162000000Y-72410000D01*
X154000000Y-53200000D02*
X154000000Y-49200000D01*
X154000000Y-70200000D02*
X154000000Y-60200000D01*
X162000000Y-59700000D02*
X162000000Y-64700000D01*
X150000000Y-70200000D02*
X154000000Y-70200000D01*
X162000000Y-50200000D02*
X162000000Y-54700000D01*
X154000000Y-53200000D02*
X158000000Y-53200000D01*
X162000000Y-54700000D02*
X165260000Y-54700000D01*
X154000000Y-60200000D02*
X158000000Y-60200000D01*
X162000000Y-59700000D02*
X165260000Y-59700000D01*
X158000000Y-50200000D02*
X162000000Y-50200000D01*
M02*
