%TF.GenerationSoftware,KiCad,Pcbnew,(6.0.11)*%
%TF.CreationDate,2024-01-05T00:58:55+00:00*%
%TF.ProjectId,Econet_ID_Extender_Bracket,45636f6e-6574-45f4-9944-5f457874656e,rev?*%
%TF.SameCoordinates,Original*%
%TF.FileFunction,Drillmap*%
%TF.FilePolarity,Positive*%
%FSLAX45Y45*%
G04 Gerber Fmt 4.5, Leading zero omitted, Abs format (unit mm)*
G04 Created by KiCad (PCBNEW (6.0.11)) date 2024-01-05 00:58:55*
%MOMM*%
%LPD*%
G01*
G04 APERTURE LIST*
%ADD10C,0.200000*%
%ADD11C,0.040000*%
G04 APERTURE END LIST*
D10*
X16200000Y-6970000D02*
X16200000Y-7241000D01*
X16200000Y-6970000D02*
X16526000Y-6970000D01*
X15000000Y-4920000D02*
X15400000Y-4920000D01*
X16526000Y-5970000D02*
X16526000Y-5470000D01*
X15000000Y-4920000D02*
X15000000Y-7020000D01*
X16526000Y-6970000D02*
X16526000Y-6470000D01*
X15800000Y-7241000D02*
X15800000Y-6020000D01*
X15800000Y-5320000D02*
X15800000Y-5020000D01*
X16200000Y-6470000D02*
X16526000Y-6470000D01*
X15800000Y-7241000D02*
X16200000Y-7241000D01*
X15400000Y-5320000D02*
X15400000Y-4920000D01*
X15400000Y-7020000D02*
X15400000Y-6020000D01*
X16200000Y-5970000D02*
X16200000Y-6470000D01*
X15000000Y-7020000D02*
X15400000Y-7020000D01*
X16200000Y-5020000D02*
X16200000Y-5470000D01*
X15400000Y-5320000D02*
X15800000Y-5320000D01*
X16200000Y-5470000D02*
X16526000Y-5470000D01*
X15400000Y-6020000D02*
X15800000Y-6020000D01*
X16200000Y-5970000D02*
X16526000Y-5970000D01*
X15800000Y-5020000D02*
X16200000Y-5020000D01*
D11*
X16009000Y-5535500D02*
X16049000Y-5575500D01*
X16049000Y-5535500D02*
X16009000Y-5575500D01*
X16009000Y-5700000D02*
X16049000Y-5740000D01*
X16049000Y-5700000D02*
X16009000Y-5740000D01*
X16009000Y-5864500D02*
X16049000Y-5904500D01*
X16049000Y-5864500D02*
X16009000Y-5904500D01*
X16009000Y-6535500D02*
X16049000Y-6575500D01*
X16049000Y-6535500D02*
X16009000Y-6575500D01*
X16009000Y-6700000D02*
X16049000Y-6740000D01*
X16049000Y-6700000D02*
X16009000Y-6740000D01*
X16009000Y-6864500D02*
X16049000Y-6904500D01*
X16049000Y-6864500D02*
X16009000Y-6904500D01*
X16359000Y-5535500D02*
X16399000Y-5575500D01*
X16399000Y-5535500D02*
X16359000Y-5575500D01*
X16359000Y-5700000D02*
X16399000Y-5740000D01*
X16399000Y-5700000D02*
X16359000Y-5740000D01*
X16359000Y-5864500D02*
X16399000Y-5904500D01*
X16399000Y-5864500D02*
X16359000Y-5904500D01*
X16359000Y-6535500D02*
X16399000Y-6575500D01*
X16399000Y-6535500D02*
X16359000Y-6575500D01*
X16359000Y-6700000D02*
X16399000Y-6740000D01*
X16399000Y-6700000D02*
X16359000Y-6740000D01*
X16359000Y-6864500D02*
X16399000Y-6904500D01*
X16399000Y-6864500D02*
X16359000Y-6904500D01*
D10*
X15247619Y-7561476D02*
X15247619Y-7361476D01*
X15295238Y-7361476D01*
X15323809Y-7371000D01*
X15342857Y-7390048D01*
X15352381Y-7409095D01*
X15361905Y-7447190D01*
X15361905Y-7475762D01*
X15352381Y-7513857D01*
X15342857Y-7532905D01*
X15323809Y-7551952D01*
X15295238Y-7561476D01*
X15247619Y-7561476D01*
X15447619Y-7561476D02*
X15447619Y-7428143D01*
X15447619Y-7466238D02*
X15457143Y-7447190D01*
X15466667Y-7437667D01*
X15485714Y-7428143D01*
X15504762Y-7428143D01*
X15571428Y-7561476D02*
X15571428Y-7428143D01*
X15571428Y-7361476D02*
X15561905Y-7371000D01*
X15571428Y-7380524D01*
X15580952Y-7371000D01*
X15571428Y-7361476D01*
X15571428Y-7380524D01*
X15695238Y-7561476D02*
X15676190Y-7551952D01*
X15666667Y-7532905D01*
X15666667Y-7361476D01*
X15800000Y-7561476D02*
X15780952Y-7551952D01*
X15771428Y-7532905D01*
X15771428Y-7361476D01*
X16028571Y-7561476D02*
X16028571Y-7361476D01*
X16095238Y-7504333D01*
X16161905Y-7361476D01*
X16161905Y-7561476D01*
X16342857Y-7561476D02*
X16342857Y-7456714D01*
X16333333Y-7437667D01*
X16314286Y-7428143D01*
X16276190Y-7428143D01*
X16257143Y-7437667D01*
X16342857Y-7551952D02*
X16323809Y-7561476D01*
X16276190Y-7561476D01*
X16257143Y-7551952D01*
X16247619Y-7532905D01*
X16247619Y-7513857D01*
X16257143Y-7494809D01*
X16276190Y-7485286D01*
X16323809Y-7485286D01*
X16342857Y-7475762D01*
X16438095Y-7428143D02*
X16438095Y-7628143D01*
X16438095Y-7437667D02*
X16457143Y-7428143D01*
X16495238Y-7428143D01*
X16514286Y-7437667D01*
X16523809Y-7447190D01*
X16533333Y-7466238D01*
X16533333Y-7523381D01*
X16523809Y-7542428D01*
X16514286Y-7551952D01*
X16495238Y-7561476D01*
X16457143Y-7561476D01*
X16438095Y-7551952D01*
X16619048Y-7542428D02*
X16628571Y-7551952D01*
X16619048Y-7561476D01*
X16609524Y-7551952D01*
X16619048Y-7542428D01*
X16619048Y-7561476D01*
X16619048Y-7437667D02*
X16628571Y-7447190D01*
X16619048Y-7456714D01*
X16609524Y-7447190D01*
X16619048Y-7437667D01*
X16619048Y-7456714D01*
D11*
X14950000Y-7871000D02*
X14990000Y-7911000D01*
X14990000Y-7871000D02*
X14950000Y-7911000D01*
D10*
X15285714Y-7781476D02*
X15304762Y-7781476D01*
X15323809Y-7791000D01*
X15333333Y-7800524D01*
X15342857Y-7819571D01*
X15352381Y-7857667D01*
X15352381Y-7905286D01*
X15342857Y-7943381D01*
X15333333Y-7962428D01*
X15323809Y-7971952D01*
X15304762Y-7981476D01*
X15285714Y-7981476D01*
X15266667Y-7971952D01*
X15257143Y-7962428D01*
X15247619Y-7943381D01*
X15238095Y-7905286D01*
X15238095Y-7857667D01*
X15247619Y-7819571D01*
X15257143Y-7800524D01*
X15266667Y-7791000D01*
X15285714Y-7781476D01*
X15438095Y-7962428D02*
X15447619Y-7971952D01*
X15438095Y-7981476D01*
X15428571Y-7971952D01*
X15438095Y-7962428D01*
X15438095Y-7981476D01*
X15619048Y-7848143D02*
X15619048Y-7981476D01*
X15571428Y-7771952D02*
X15523809Y-7914809D01*
X15647619Y-7914809D01*
X15761905Y-7781476D02*
X15780952Y-7781476D01*
X15800000Y-7791000D01*
X15809524Y-7800524D01*
X15819048Y-7819571D01*
X15828571Y-7857667D01*
X15828571Y-7905286D01*
X15819048Y-7943381D01*
X15809524Y-7962428D01*
X15800000Y-7971952D01*
X15780952Y-7981476D01*
X15761905Y-7981476D01*
X15742857Y-7971952D01*
X15733333Y-7962428D01*
X15723809Y-7943381D01*
X15714286Y-7905286D01*
X15714286Y-7857667D01*
X15723809Y-7819571D01*
X15733333Y-7800524D01*
X15742857Y-7791000D01*
X15761905Y-7781476D01*
X15952381Y-7781476D02*
X15971428Y-7781476D01*
X15990476Y-7791000D01*
X16000000Y-7800524D01*
X16009524Y-7819571D01*
X16019048Y-7857667D01*
X16019048Y-7905286D01*
X16009524Y-7943381D01*
X16000000Y-7962428D01*
X15990476Y-7971952D01*
X15971428Y-7981476D01*
X15952381Y-7981476D01*
X15933333Y-7971952D01*
X15923809Y-7962428D01*
X15914286Y-7943381D01*
X15904762Y-7905286D01*
X15904762Y-7857667D01*
X15914286Y-7819571D01*
X15923809Y-7800524D01*
X15933333Y-7791000D01*
X15952381Y-7781476D01*
X16104762Y-7981476D02*
X16104762Y-7848143D01*
X16104762Y-7867190D02*
X16114286Y-7857667D01*
X16133333Y-7848143D01*
X16161905Y-7848143D01*
X16180952Y-7857667D01*
X16190476Y-7876714D01*
X16190476Y-7981476D01*
X16190476Y-7876714D02*
X16200000Y-7857667D01*
X16219048Y-7848143D01*
X16247619Y-7848143D01*
X16266667Y-7857667D01*
X16276190Y-7876714D01*
X16276190Y-7981476D01*
X16371428Y-7981476D02*
X16371428Y-7848143D01*
X16371428Y-7867190D02*
X16380952Y-7857667D01*
X16400000Y-7848143D01*
X16428571Y-7848143D01*
X16447619Y-7857667D01*
X16457143Y-7876714D01*
X16457143Y-7981476D01*
X16457143Y-7876714D02*
X16466667Y-7857667D01*
X16485714Y-7848143D01*
X16514286Y-7848143D01*
X16533333Y-7857667D01*
X16542857Y-7876714D01*
X16542857Y-7981476D01*
X16933333Y-7771952D02*
X16761905Y-8029095D01*
X17190476Y-7781476D02*
X17209524Y-7781476D01*
X17228571Y-7791000D01*
X17238095Y-7800524D01*
X17247619Y-7819571D01*
X17257143Y-7857667D01*
X17257143Y-7905286D01*
X17247619Y-7943381D01*
X17238095Y-7962428D01*
X17228571Y-7971952D01*
X17209524Y-7981476D01*
X17190476Y-7981476D01*
X17171429Y-7971952D01*
X17161905Y-7962428D01*
X17152381Y-7943381D01*
X17142857Y-7905286D01*
X17142857Y-7857667D01*
X17152381Y-7819571D01*
X17161905Y-7800524D01*
X17171429Y-7791000D01*
X17190476Y-7781476D01*
X17342857Y-7962428D02*
X17352381Y-7971952D01*
X17342857Y-7981476D01*
X17333333Y-7971952D01*
X17342857Y-7962428D01*
X17342857Y-7981476D01*
X17476190Y-7781476D02*
X17495238Y-7781476D01*
X17514286Y-7791000D01*
X17523810Y-7800524D01*
X17533333Y-7819571D01*
X17542857Y-7857667D01*
X17542857Y-7905286D01*
X17533333Y-7943381D01*
X17523810Y-7962428D01*
X17514286Y-7971952D01*
X17495238Y-7981476D01*
X17476190Y-7981476D01*
X17457143Y-7971952D01*
X17447619Y-7962428D01*
X17438095Y-7943381D01*
X17428571Y-7905286D01*
X17428571Y-7857667D01*
X17438095Y-7819571D01*
X17447619Y-7800524D01*
X17457143Y-7791000D01*
X17476190Y-7781476D01*
X17733333Y-7981476D02*
X17619048Y-7981476D01*
X17676190Y-7981476D02*
X17676190Y-7781476D01*
X17657143Y-7810048D01*
X17638095Y-7829095D01*
X17619048Y-7838619D01*
X17914286Y-7781476D02*
X17819048Y-7781476D01*
X17809524Y-7876714D01*
X17819048Y-7867190D01*
X17838095Y-7857667D01*
X17885714Y-7857667D01*
X17904762Y-7867190D01*
X17914286Y-7876714D01*
X17923810Y-7895762D01*
X17923810Y-7943381D01*
X17914286Y-7962428D01*
X17904762Y-7971952D01*
X17885714Y-7981476D01*
X17838095Y-7981476D01*
X17819048Y-7971952D01*
X17809524Y-7962428D01*
X17990476Y-7781476D02*
X18123810Y-7781476D01*
X18038095Y-7981476D01*
X18190476Y-7781476D02*
X18190476Y-7819571D01*
X18266667Y-7781476D02*
X18266667Y-7819571D01*
X18561905Y-8057667D02*
X18552381Y-8048143D01*
X18533333Y-8019571D01*
X18523810Y-8000524D01*
X18514286Y-7971952D01*
X18504762Y-7924333D01*
X18504762Y-7886238D01*
X18514286Y-7838619D01*
X18523810Y-7810048D01*
X18533333Y-7791000D01*
X18552381Y-7762428D01*
X18561905Y-7752905D01*
X18742857Y-7981476D02*
X18628571Y-7981476D01*
X18685714Y-7981476D02*
X18685714Y-7781476D01*
X18666667Y-7810048D01*
X18647619Y-7829095D01*
X18628571Y-7838619D01*
X18819048Y-7800524D02*
X18828571Y-7791000D01*
X18847619Y-7781476D01*
X18895238Y-7781476D01*
X18914286Y-7791000D01*
X18923810Y-7800524D01*
X18933333Y-7819571D01*
X18933333Y-7838619D01*
X18923810Y-7867190D01*
X18809524Y-7981476D01*
X18933333Y-7981476D01*
X19171429Y-7981476D02*
X19171429Y-7781476D01*
X19257143Y-7981476D02*
X19257143Y-7876714D01*
X19247619Y-7857667D01*
X19228571Y-7848143D01*
X19200000Y-7848143D01*
X19180952Y-7857667D01*
X19171429Y-7867190D01*
X19380952Y-7981476D02*
X19361905Y-7971952D01*
X19352381Y-7962428D01*
X19342857Y-7943381D01*
X19342857Y-7886238D01*
X19352381Y-7867190D01*
X19361905Y-7857667D01*
X19380952Y-7848143D01*
X19409524Y-7848143D01*
X19428571Y-7857667D01*
X19438095Y-7867190D01*
X19447619Y-7886238D01*
X19447619Y-7943381D01*
X19438095Y-7962428D01*
X19428571Y-7971952D01*
X19409524Y-7981476D01*
X19380952Y-7981476D01*
X19561905Y-7981476D02*
X19542857Y-7971952D01*
X19533333Y-7952905D01*
X19533333Y-7781476D01*
X19714286Y-7971952D02*
X19695238Y-7981476D01*
X19657143Y-7981476D01*
X19638095Y-7971952D01*
X19628571Y-7952905D01*
X19628571Y-7876714D01*
X19638095Y-7857667D01*
X19657143Y-7848143D01*
X19695238Y-7848143D01*
X19714286Y-7857667D01*
X19723810Y-7876714D01*
X19723810Y-7895762D01*
X19628571Y-7914809D01*
X19800000Y-7971952D02*
X19819048Y-7981476D01*
X19857143Y-7981476D01*
X19876190Y-7971952D01*
X19885714Y-7952905D01*
X19885714Y-7943381D01*
X19876190Y-7924333D01*
X19857143Y-7914809D01*
X19828571Y-7914809D01*
X19809524Y-7905286D01*
X19800000Y-7886238D01*
X19800000Y-7876714D01*
X19809524Y-7857667D01*
X19828571Y-7848143D01*
X19857143Y-7848143D01*
X19876190Y-7857667D01*
X19952381Y-8057667D02*
X19961905Y-8048143D01*
X19980952Y-8019571D01*
X19990476Y-8000524D01*
X20000000Y-7971952D01*
X20009524Y-7924333D01*
X20009524Y-7886238D01*
X20000000Y-7838619D01*
X19990476Y-7810048D01*
X19980952Y-7791000D01*
X19961905Y-7762428D01*
X19952381Y-7752905D01*
M02*
